<svg width="38" height="34" viewBox="0 0 38 34" fill="none" xmlns="http://www.w3.org/2000/svg">
<path d="M33.4967 25.4924C33.5842 25.4924 33.6699 25.4943 33.7573 25.5018C35.9871 25.6393 37.7515 27.4861 37.7515 29.7454C37.7515 32.0957 35.8437 34 33.4894 34C32.0301 34 30.7383 33.2662 29.9735 32.1458C29.9696 32.1421 29.966 32.1383 29.966 32.1346C29.9547 32.1197 29.9455 32.1049 29.9361 32.0901C29.9157 32.0622 29.897 32.0344 29.8785 32.0046C29.8766 32.0027 29.8747 31.9989 29.8747 31.9989L29.7221 31.7352C29.7202 31.7333 29.7184 31.7296 29.7184 31.7296C29.696 31.6887 29.6755 31.6479 29.6569 31.6052C29.6513 31.5958 29.6458 31.5866 29.6421 31.5772C29.376 31.0218 29.227 30.4011 29.227 29.7454C29.227 27.7685 30.5801 26.1075 32.4098 25.6318C32.4209 25.6282 32.4303 25.6263 32.4414 25.6245C32.5066 25.6078 32.5718 25.5928 32.6387 25.578C32.7039 25.565 32.769 25.5538 32.836 25.5427C32.8994 25.5334 32.9608 25.526 33.0222 25.5204C33.0706 25.5131 33.1208 25.5093 33.1692 25.5056C33.186 25.5037 33.2045 25.5037 33.2213 25.5018C33.2474 25.5 33.2716 25.4981 33.2977 25.4981C33.3609 25.4943 33.4261 25.4925 33.4894 25.4925L33.4967 25.4924ZM15.263 2.25868C16.7053 -0.542928 20.768 -0.796633 22.5432 1.82522C22.5471 1.8288 22.5509 1.83262 22.5509 1.83621C22.5619 1.85088 22.5713 1.86569 22.5805 1.8804C22.6011 1.90793 22.6195 1.93555 22.6381 1.96507C22.6401 1.9668 22.6418 1.97048 22.6418 1.97048L22.794 2.23172C22.7959 2.23358 22.7978 2.23714 22.7978 2.23714C22.8065 2.25287 22.8134 2.26928 22.8215 2.28501L22.8227 2.28651L22.8234 2.2883L22.9493 2.50233C24.8181 5.714 28.5732 12.1546 30.4447 15.3669C30.435 15.35 30.4212 15.3307 30.4075 15.313L30.353 15.2325L30.3505 15.2292L30.2847 15.1157C30.2847 15.1157 30.2824 15.1117 30.2806 15.1102C30.2619 15.0804 30.2434 15.053 30.2229 15.0256C30.214 15.0112 30.2044 14.9959 30.1938 14.9815C30.1938 14.9773 30.1897 14.9742 30.1857 14.9701C28.4796 12.4409 24.5759 12.5663 23.0289 15.1842C23.016 15.2026 23.0046 15.218 22.9939 15.2341C22.9568 15.2875 22.9193 15.344 22.8851 15.3998L22.747 15.6349L22.7373 15.6542L16.0339 27.1667C15.9951 27.2319 15.9431 27.3236 15.9056 27.3897L15.8974 27.4017C15.8901 27.4187 15.8803 27.4363 15.8722 27.4532C15.8682 27.4572 15.8666 27.4613 15.865 27.4654C15.817 27.5579 15.7715 27.6528 15.73 27.7494C14.3189 30.398 16.2332 33.7237 19.247 33.8726C19.334 33.8799 19.4193 33.8823 19.507 33.8823C19.498 33.8821 19.4719 33.882 19.43 33.8819L15.6444 33.882C15.531 33.882 15.4162 33.8821 15.3 33.8821L11.949 33.883C11.8209 33.8831 11.6928 33.8831 11.5648 33.8831L6.67616 33.8832C6.58093 33.8831 6.48786 33.8831 6.39715 33.883L5.2306 33.882C5.16699 33.8819 5.10643 33.8819 5.04911 33.8818L4.74504 33.8811C4.70119 33.881 4.66085 33.8809 4.62421 33.8808L4.44932 33.8799C4.40646 33.8796 4.37942 33.8793 4.36936 33.879C4.24316 33.8845 4.11857 33.883 3.99263 33.8729C1.29151 33.7589 -0.659934 30.9387 0.209135 28.3892C0.286735 28.0829 0.399432 27.7833 0.551388 27.4976L0.810601 27.0534L0.825971 27.026L0.827707 27.0219C0.841438 26.9985 3.95521 21.656 7.27091 15.9671L7.73458 15.1716C11.3724 8.93002 15.0905 2.55084 15.1044 2.5274C15.1086 2.52013 15.1142 2.51046 15.1182 2.5024L15.2443 2.28837C15.2443 2.28505 15.2466 2.28269 15.2483 2.2811C15.2531 2.27356 15.2582 2.26622 15.263 2.25868Z" fill="white"/>
</svg>
