<svg width="54" height="48" viewBox="0 0 54 48" fill="none" xmlns="http://www.w3.org/2000/svg">
<path d="M47.0868 35.9893C47.2098 35.9893 47.3303 35.9919 47.4531 36.0025C50.5876 36.1966 53.0678 38.804 53.0678 41.9934C53.0678 45.3115 50.386 48 47.0765 48C45.0251 48 43.2093 46.964 42.1342 45.3823C42.1287 45.377 42.1236 45.3718 42.1236 45.3665C42.1078 45.3455 42.0948 45.3246 42.0816 45.3037C42.0529 45.2642 42.0267 45.225 42.0006 45.1829L41.9953 45.175L41.7808 44.8026L41.7755 44.7947C41.7441 44.737 41.7153 44.6794 41.6892 44.619C41.6812 44.6058 41.6735 44.5928 41.6683 44.5796C41.2942 43.7955 41.0848 42.9193 41.0848 41.9934C41.0848 39.2025 42.9869 36.8576 45.559 36.1861C45.5746 36.181 45.5877 36.1784 45.6034 36.1757C45.695 36.1522 45.7866 36.131 45.8807 36.1101C45.9724 36.0918 46.0638 36.076 46.1581 36.0603C46.2471 36.0471 46.3335 36.0368 46.4198 36.0288C46.4878 36.0185 46.5583 36.0132 46.6264 36.0079C46.65 36.0053 46.6761 36.0053 46.6996 36.0026C46.7363 36 46.7704 35.9973 46.8071 35.9973C46.8959 35.992 46.9875 35.9894 47.0765 35.9894L47.0868 35.9893ZM21.4554 3.18873C23.4828 -0.766487 29.1938 -1.12466 31.6894 2.57678C31.6948 2.58184 31.7 2.58723 31.7 2.59229C31.7156 2.61301 31.7287 2.63392 31.7417 2.65468C31.7707 2.69354 31.7966 2.73254 31.8226 2.77421L31.8279 2.78186L32.0419 3.15067L32.0472 3.15831C32.0594 3.18053 32.0691 3.20368 32.0806 3.2259L32.0822 3.22801L32.0832 3.23054L32.2602 3.5327C34.8872 8.06682 40.1657 17.1594 42.7966 21.6945C42.7829 21.6706 42.7636 21.6433 42.7442 21.6183L42.6676 21.5048L42.6641 21.5001L42.5717 21.3399L42.5659 21.332C42.5396 21.29 42.5135 21.2514 42.4848 21.2127C42.4722 21.1923 42.4587 21.1707 42.4439 21.1503C42.4439 21.1445 42.4381 21.14 42.4324 21.1342C40.0341 17.5636 34.5467 17.7407 32.3721 21.4366C32.3539 21.4625 32.3379 21.4842 32.3229 21.507C32.2707 21.5824 32.218 21.6622 32.1699 21.741L31.9758 22.0728L31.9621 22.1001L22.5391 38.3529C22.4845 38.445 22.4115 38.5744 22.3587 38.6678L22.3472 38.6848C22.3369 38.7087 22.3232 38.7336 22.3118 38.7575C22.3061 38.7631 22.3039 38.7689 22.3016 38.7747C22.2342 38.9052 22.1702 39.0393 22.1118 39.1756C20.1282 42.9148 22.8192 47.6099 27.0558 47.8201C27.1781 47.8304 27.298 47.8338 27.4213 47.8338C27.4086 47.8336 27.3719 47.8335 27.313 47.8333L21.9915 47.8334C21.8322 47.8335 21.6708 47.8335 21.5075 47.8335L16.7969 47.8349C16.6169 47.8349 16.4367 47.835 16.2568 47.835L9.38477 47.835C9.2509 47.835 9.12008 47.835 8.99257 47.8349L7.35272 47.8335C7.26331 47.8333 7.17818 47.8332 7.09761 47.8331L6.67017 47.8322C6.60853 47.832 6.55182 47.8319 6.50032 47.8317L6.25447 47.8305C6.19422 47.8301 6.15621 47.8296 6.14207 47.8291C5.96467 47.837 5.78953 47.8348 5.6125 47.8206C1.81549 47.6596 -0.927678 43.6782 0.293984 40.0789C0.403068 39.6464 0.561487 39.2235 0.775094 38.8201L1.13947 38.193L1.16108 38.1543L1.16352 38.1486C1.18282 38.1155 5.55989 30.5732 10.2208 22.5418L10.8726 21.4187C15.9864 12.6071 21.2129 3.60118 21.2325 3.56809C21.2383 3.55782 21.2462 3.54418 21.2518 3.53279L21.4291 3.23064C21.4291 3.22595 21.4347 3.22037 21.4347 3.22037C21.4415 3.20973 21.4487 3.19937 21.4554 3.18873Z" fill="#111111"/>
</svg>
