<svg width="143" height="32" viewBox="0 0 143 32" fill="none" xmlns="http://www.w3.org/2000/svg">
<g clip-path="url(#clip0_825_5109)">
<path d="M57.379 18.4163L54.8897 11.5172C54.7882 11.2351 54.4 11.2351 54.2982 11.5172L51.8094 18.4167C51.7917 18.4657 51.7858 18.5185 51.7922 18.5703C51.7987 18.6222 51.8172 18.6717 51.8463 18.7147C51.8753 18.7576 51.9141 18.7926 51.9592 18.8168C52.0043 18.841 52.0544 18.8537 52.1052 18.8537H57.0831C57.134 18.8537 57.1841 18.841 57.2292 18.8168C57.2743 18.7925 57.313 18.7574 57.342 18.7145C57.3711 18.6716 57.3896 18.622 57.396 18.5701C57.4024 18.5182 57.3965 18.4655 57.3788 18.4165M58.5289 22.2941H50.6597C50.5953 22.2941 50.5325 22.3144 50.4796 22.3522C50.4268 22.39 50.3864 22.4435 50.364 22.5056L48.8148 26.7983C48.7924 26.8604 48.752 26.9139 48.6992 26.9517C48.6463 26.9895 48.5835 27.0098 48.5191 27.0098H45.1083C45.0568 27.0098 45.006 26.9968 44.9605 26.9719C44.9149 26.947 44.876 26.9111 44.8471 26.8672C44.8182 26.8232 44.8003 26.7727 44.7948 26.72C44.7893 26.6673 44.7964 26.614 44.8156 26.5648L52.6682 6.45194C52.6917 6.39186 52.7322 6.3404 52.7844 6.30418C52.8366 6.26796 52.8982 6.24863 52.9611 6.2487H56.227C56.3557 6.2487 56.4716 6.32913 56.5197 6.45194L64.3721 26.5646C64.3914 26.6138 64.3986 26.6672 64.3932 26.7199C64.3877 26.7727 64.3697 26.8233 64.3409 26.8673C64.312 26.9112 64.273 26.9472 64.2274 26.9721C64.1818 26.997 64.131 27.01 64.0794 27.01H60.6693C60.6049 27.01 60.542 26.9897 60.4891 26.9518C60.4363 26.914 60.396 26.8604 60.3736 26.7983L58.8241 22.5056C58.8017 22.4435 58.7614 22.39 58.7085 22.3522C58.6557 22.3144 58.5929 22.2941 58.5285 22.2941M65.9701 13.3073H68.8873C68.971 13.3073 69.0512 13.3415 69.1104 13.4023C69.1695 13.4631 69.2028 13.5456 69.2028 13.6316V26.6855C69.2028 26.7715 69.1695 26.854 69.1104 26.9148C69.0512 26.9756 68.971 27.0098 68.8873 27.0098H65.9701C65.8865 27.0098 65.8062 26.9756 65.7471 26.9148C65.6879 26.854 65.6547 26.7715 65.6547 26.6855V13.6314C65.6547 13.5454 65.6879 13.4629 65.7471 13.4021C65.8062 13.3412 65.8865 13.3073 65.9701 13.3073ZM79.842 16.4826C79.842 16.5687 79.8088 16.6512 79.7496 16.712C79.6904 16.7728 79.6102 16.807 79.5265 16.807H79.4382C77.9958 16.807 76.9378 17.1629 76.2649 17.8746C75.5915 18.5864 75.2555 19.7631 75.2555 21.4042V26.6855C75.2555 26.7715 75.2222 26.854 75.1631 26.9148C75.1039 26.9756 75.0237 27.0098 74.94 27.0098H72.0514C71.9678 27.0098 71.8875 26.9756 71.8284 26.9148C71.7692 26.854 71.736 26.7715 71.736 26.6855V13.6314C71.736 13.5454 71.7692 13.4629 71.8284 13.4021C71.8875 13.3412 71.9678 13.3071 72.0514 13.3071H74.911C74.9947 13.3071 75.0749 13.3412 75.1341 13.4021C75.1932 13.4629 75.2264 13.5454 75.2264 13.6314V16.2135H75.2843C75.6304 15.1458 76.1784 14.3257 76.9288 13.7518C77.6785 13.1786 78.6017 12.8917 79.6977 12.8917H79.842V16.4826ZM87.8184 16.362C87.7348 16.362 87.6545 16.3962 87.5954 16.457C87.5362 16.5178 87.503 16.6003 87.503 16.6863V22.1159C87.503 22.6697 87.6081 23.0651 87.8201 23.3023C88.0315 23.5395 88.397 23.6582 88.9162 23.6582H89.2066C89.2902 23.6582 89.3705 23.6924 89.4296 23.7532C89.4888 23.814 89.522 23.8965 89.522 23.9825V26.7149C89.522 26.8009 89.4888 26.8834 89.4296 26.9442C89.3705 27.005 89.2902 27.0392 89.2066 27.0392H87.9642C86.6757 27.0392 85.6854 26.6982 84.9931 26.016C84.3006 25.3339 83.9545 24.3209 83.9545 22.976V16.6863C83.9545 16.6003 83.9213 16.5178 83.8621 16.457C83.8029 16.3962 83.7227 16.362 83.6391 16.362H81.8181C81.7345 16.362 81.6542 16.3278 81.5951 16.267C81.5359 16.2062 81.5027 16.1237 81.5027 16.0377V13.6314C81.5027 13.5454 81.5359 13.4629 81.5951 13.4021C81.6542 13.3412 81.7345 13.3071 81.8181 13.3071H83.6393C83.7229 13.3071 83.8032 13.2729 83.8623 13.2121C83.9215 13.1513 83.9547 13.0688 83.9547 12.9827V8.14448C83.9547 8.05846 83.9879 7.97597 84.0471 7.91515C84.1063 7.85432 84.1865 7.82016 84.2701 7.82016H87.1873C87.271 7.82016 87.3512 7.85432 87.4104 7.91515C87.4696 7.97597 87.5028 8.05846 87.5028 8.14448V12.9827C87.5028 13.0688 87.536 13.1513 87.5952 13.2121C87.6543 13.2729 87.7346 13.3071 87.8182 13.3071H89.9277C90.0114 13.3071 90.0916 13.3412 90.1507 13.4021C90.2099 13.4629 90.2431 13.5454 90.2431 13.6314V16.0379C90.2431 16.1239 90.2099 16.2064 90.1507 16.2672C90.0916 16.328 90.0114 16.3622 89.9277 16.3622L87.8184 16.362ZM101.177 22.9464C101.84 22.2346 102.172 21.3053 102.172 20.1583C102.172 19.0119 101.84 18.0822 101.177 17.3704C100.513 16.6586 99.6426 16.3027 98.5657 16.3027C97.4886 16.3027 96.6188 16.6586 95.9551 17.3704C95.2919 18.0822 94.96 19.0119 94.96 20.1583C94.96 21.3053 95.2919 22.2346 95.9551 22.9464C96.6188 23.6582 97.4886 24.0141 98.5657 24.0141C99.6426 24.0141 100.513 23.6582 101.177 22.9464ZM94.4408 26.5944C93.46 26.0212 92.6857 25.1856 92.1187 24.0883C91.5512 22.991 91.2677 21.6811 91.2677 20.1583C91.2677 18.6362 91.5512 17.3259 92.1187 16.2286C92.6857 15.1313 93.46 14.2963 94.4408 13.7224C95.4216 13.149 96.4983 12.8623 97.6716 12.8623C98.71 12.8623 99.5993 13.0699 100.34 13.485C101.08 13.9002 101.671 14.4837 102.114 15.2351H102.172V13.6314C102.172 13.5454 102.205 13.4629 102.264 13.4021C102.323 13.3412 102.403 13.3071 102.487 13.3071H105.375C105.459 13.3071 105.539 13.3412 105.599 13.4021C105.658 13.4629 105.691 13.5454 105.691 13.6314V26.6852C105.691 26.7713 105.658 26.8537 105.599 26.9146C105.539 26.9754 105.459 27.0096 105.375 27.0096H102.487C102.403 27.0096 102.323 26.9754 102.264 26.9146C102.205 26.8537 102.172 26.7713 102.172 26.6852V25.0818H102.114C101.671 25.8336 101.08 26.4165 100.34 26.8316C99.5993 27.2468 98.7102 27.4543 97.6716 27.4543C96.4983 27.4543 95.4216 27.1676 94.4408 26.5944ZM117.704 22.9464C118.367 22.2346 118.699 21.3053 118.699 20.1583C118.699 19.0119 118.367 18.0822 117.704 17.3704C117.04 16.6586 116.17 16.3027 115.093 16.3027C114.016 16.3027 113.146 16.6586 112.482 17.3704C111.819 18.0822 111.487 19.0119 111.487 20.1583C111.487 21.3053 111.819 22.2346 112.482 22.9464C113.146 23.6582 114.016 24.0141 115.093 24.0141C116.17 24.0141 117.04 23.6582 117.704 22.9464ZM113.319 26.8316C112.578 26.4165 111.987 25.8336 111.545 25.0818H111.487V26.6852C111.487 26.7713 111.454 26.8537 111.395 26.9146C111.335 26.9754 111.255 27.0096 111.172 27.0096H108.254C108.171 27.0096 108.091 26.9754 108.031 26.9146C107.972 26.8537 107.939 26.7713 107.939 26.6852V6.57237C107.939 6.48636 107.972 6.40386 108.031 6.34304C108.091 6.28222 108.171 6.24805 108.254 6.24805H111.172C111.255 6.24805 111.335 6.28222 111.395 6.34304C111.454 6.40386 111.487 6.48636 111.487 6.57237V15.2349H111.545C111.987 14.4835 112.578 13.9002 113.319 13.485C114.059 13.0697 114.949 12.8621 115.987 12.8621C117.16 12.8621 118.237 13.1488 119.218 13.7222C120.199 14.296 120.973 15.1311 121.54 16.2282C122.107 17.3261 122.391 18.6364 122.391 20.1585C122.391 21.6813 122.107 22.991 121.54 24.0885C120.973 25.1858 120.199 26.0215 119.218 26.5944C118.237 27.1678 117.16 27.4548 115.988 27.4548C114.949 27.4548 114.059 27.2472 113.319 26.8318M127.306 27.0098H124.389C124.306 27.0098 124.225 26.9756 124.166 26.9148C124.107 26.854 124.074 26.7715 124.074 26.6855V6.57302C124.074 6.487 124.107 6.40451 124.166 6.34369C124.225 6.28287 124.306 6.2487 124.389 6.2487H127.306C127.39 6.2487 127.47 6.28287 127.529 6.34369C127.589 6.40451 127.622 6.487 127.622 6.57302V26.6855C127.622 26.7715 127.589 26.854 127.529 26.9148C127.47 26.9756 127.39 27.0098 127.306 27.0098ZM134.188 16.4809C133.704 16.8688 133.377 17.4288 133.208 18.1613C133.162 18.3633 133.315 18.557 133.517 18.557H139.069C139.261 18.557 139.413 18.3797 139.382 18.1843C139.271 17.4913 138.982 16.9389 138.515 16.5255C137.967 16.0411 137.25 15.799 136.365 15.799C135.481 15.799 134.755 16.0262 134.188 16.4809ZM141.298 14.7754C142.433 16.0511 143 17.8554 143 20.1882V20.5756C143 20.6616 142.967 20.7441 142.908 20.8049C142.849 20.8658 142.768 20.8999 142.685 20.8999H133.41C133.364 20.9 133.318 20.9105 133.276 20.9306C133.234 20.9507 133.197 20.9799 133.168 21.0163C133.138 21.0527 133.116 21.0953 133.104 21.1411C133.092 21.187 133.09 21.235 133.098 21.2818C133.246 22.1484 133.619 22.8368 134.216 23.3469C134.899 23.9306 135.76 24.2219 136.798 24.2219C138.139 24.2219 139.38 23.6839 140.521 22.6078C140.66 22.4764 140.881 22.5043 140.989 22.664L142.408 24.757C142.452 24.8221 142.472 24.9017 142.463 24.9808C142.454 25.0598 142.417 25.1327 142.359 25.1856C141.663 25.8121 140.889 26.3407 140.058 26.7577C139.135 27.2221 138.048 27.4548 136.798 27.4548C135.356 27.4548 134.096 27.1529 133.019 26.5501C131.942 25.9473 131.106 25.0971 130.51 23.9994C129.913 22.9021 129.615 21.6318 129.615 20.1882C129.615 18.7451 129.904 17.4699 130.481 16.3622C131.058 15.2552 131.865 14.3951 132.904 13.7819C133.942 13.1693 135.154 12.8625 136.539 12.8625C138.576 12.8625 140.163 13.5004 141.298 14.7754ZM69.5838 8.48134C69.5838 9.7047 68.6192 10.6965 67.4292 10.6965C66.2389 10.6965 65.2743 9.7047 65.2743 8.48113C65.2743 7.25756 66.2391 6.26578 67.4292 6.26578C68.6192 6.26578 69.5838 7.25778 69.5838 8.48134Z" fill="white"/>
<path opacity="0.9" d="M16.6129 0.398149L2.74191 6.29934C1.97056 6.62755 1.97855 7.75426 2.75474 8.07058L16.6836 13.7497C17.9074 14.2488 19.2703 14.2488 20.4941 13.7497L34.4231 8.07036C35.1991 7.75426 35.2075 6.62777 34.4358 6.29955L20.5652 0.397933C19.2997 -0.140457 17.8782 -0.140457 16.6127 0.397933" fill="white"/>
<path d="M19.8242 16.8496V31.037C19.8242 31.7116 20.486 32.1739 21.0961 31.9252L36.617 25.7311C36.7902 25.6605 36.9386 25.5381 37.0433 25.3798C37.1479 25.2214 37.2038 25.0343 37.2038 24.8429V10.6556C37.2038 9.98081 36.542 9.51876 35.9319 9.76741L20.4109 15.9616C20.2379 16.0322 20.0894 16.1546 19.9848 16.313C19.8802 16.4713 19.8242 16.6581 19.8242 16.8496Z" fill="white"/>
<path opacity="0.9" d="M16.2006 17.5822L11.5944 19.8689L11.1267 20.1013L1.40308 24.8916C0.786921 25.1973 0 24.7355 0 24.0315V10.7156C0 10.4609 0.127018 10.241 0.297356 10.0756C0.367237 10.0041 0.446516 9.94293 0.532885 9.89399C0.76505 9.75064 1.09647 9.71237 1.37827 9.82696L16.1233 15.8339C16.8727 16.1396 16.9316 17.2192 16.2006 17.5822Z" fill="white"/>
<path opacity="0.2" d="M16.2002 17.5822L11.5939 19.8689L0.296875 10.0754C0.366769 10.0039 0.446048 9.94286 0.532404 9.89399C0.764569 9.75064 1.09599 9.71237 1.37779 9.82696L16.1228 15.8339C16.8723 16.1396 16.9311 17.2192 16.2002 17.5822Z" fill="#111111"/>
</g>
<defs>
<clipPath id="clip0_825_5109">
<rect width="143" height="32" fill="white" transform="translate(0 -0.00585938)"/>
</clipPath>
</defs>
</svg>
