<svg width="45" height="34" viewBox="0 0 45 34" fill="none" xmlns="http://www.w3.org/2000/svg">
<g clip-path="url(#clip0_846_6078)">
<mask id="mask0_846_6078" style="mask-type:luminance" maskUnits="userSpaceOnUse" x="0" y="0" width="45" height="34">
<path d="M0.734375 0.00195312H44.7344V33.9988H0.734375V0.00195312Z" fill="white"/>
</mask>
<g mask="url(#mask0_846_6078)">
<path d="M44.7344 16.2408V17.7583C44.7206 17.8406 44.7032 17.9215 44.6942 18.0034C44.6192 18.6635 44.5707 19.3278 44.4671 19.983C44.1289 22.1125 43.3977 24.0918 42.3113 25.922C40.6614 28.7006 38.431 30.8195 35.628 32.2664C34.0103 33.1055 32.266 33.6448 30.4726 33.8602C30.0742 33.9084 29.6762 33.9517 29.2779 33.9976H13.8203C13.7424 33.9824 13.6649 33.9581 13.5864 33.9532C12.0277 33.8504 10.5281 33.4782 9.09872 32.823C5.98685 31.3965 3.66662 29.0845 2.14781 25.9022C1.47667 24.4986 1.04234 22.9838 0.864021 21.4251C0.820202 21.0461 0.77747 20.6675 0.734375 20.2888V18.8164C0.749223 18.7349 0.772038 18.6533 0.776745 18.5713C0.857503 17.1566 1.13454 15.7829 1.62234 14.4626C2.9351 10.91 5.22346 8.27518 8.47548 6.56983C10.1627 5.68473 11.9611 5.2196 13.842 5.1164C14.763 5.06633 15.6831 5.1202 16.5986 5.24881C16.6816 5.26057 16.8011 5.22187 16.8587 5.16003C18.175 3.75137 19.6739 2.60714 21.364 1.73987C23.0034 0.898766 24.7287 0.356623 26.5448 0.139614C26.9721 0.088397 27.4005 0.0462851 27.8286 0H29.1464C29.2326 0.0140373 29.3192 0.0299715 29.4054 0.0405943C30.0583 0.120265 30.7149 0.170344 31.3616 0.283781C33.3795 0.638507 35.2579 1.39728 36.9962 2.52444C39.6615 4.25292 41.6928 6.5926 43.0805 9.53815C43.883 11.2337 44.3983 13.0625 44.6033 14.9429C44.6504 15.3758 44.6906 15.8087 44.7344 16.2408ZM20.1324 6.42111C20.1588 6.45754 20.1654 6.47461 20.1766 6.4803C21.0816 6.94762 21.9465 7.49557 22.7619 8.11811C22.8133 8.15719 22.9408 8.14087 23.0031 8.0999C25.244 6.61233 27.6732 6.09902 30.2828 6.58387C32.8399 7.05886 34.9207 8.39734 36.5105 10.5352C38.3107 12.9545 38.997 15.6903 38.5001 18.7341C38.167 20.7741 37.3869 22.6042 36.0611 24.1373C33.642 26.9323 30.6127 28.0882 27.0467 27.5988C24.8514 27.2976 22.9564 26.3055 21.3879 24.6449C19.3748 22.5147 17.3486 20.3985 15.3297 18.2739C15.0606 17.9909 14.7611 17.7632 14.3736 17.7135C13.6968 17.6267 13.0826 17.9806 12.7904 18.6176C12.5296 19.1863 12.5633 19.8275 13.129 20.4102C15.3797 22.7249 17.6105 25.0607 19.8586 27.3777C20.2434 27.7762 20.6561 28.1441 21.0932 28.4783C22.7355 29.7276 24.5871 30.4184 26.5923 30.6965C28.1661 30.9143 29.7277 30.8676 31.2773 30.5027C34.233 29.8072 36.6815 28.2267 38.6099 25.788C40.2022 23.7727 41.1651 21.457 41.5008 18.857C41.6954 17.3744 41.6547 15.8683 41.3806 14.3996C40.9334 11.9981 39.9635 9.84925 38.4096 8.02023C35.4448 4.53253 31.7147 2.97553 27.276 3.32305C25.5685 3.45659 23.9533 3.98204 22.4334 4.81555C21.6133 5.26198 20.8417 5.80032 20.1324 6.42111ZM19.0463 30.7686C18.9853 30.7093 18.9244 30.6498 18.8638 30.5899C17.9436 29.6798 17.0184 28.7753 16.109 27.8534C15.933 27.6751 15.7711 27.5882 15.522 27.5943C14.6011 27.6178 13.6794 27.622 12.7719 27.4072C8.25964 26.3381 5.63956 21.1986 7.30251 16.6763C8.61418 13.1105 12.2454 10.9388 15.8262 11.6085C17.4312 11.9086 18.8399 12.6203 19.9962 13.8696C21.4064 15.3947 22.8586 16.8762 24.284 18.3858C24.6084 18.7295 24.9811 18.8862 25.4305 18.8191C26.0114 18.7322 26.4738 18.4424 26.6839 17.8456C26.8896 17.2583 26.79 16.7021 26.3656 16.2518C24.8696 14.664 23.409 13.0365 21.8526 11.5163C18.8338 8.56654 15.2739 7.6894 11.3367 8.94366C6.04117 10.6293 2.94198 16.358 4.15189 22.0109C5.25461 27.1614 9.55429 30.7762 14.5855 30.7808C15.9902 30.7823 17.3953 30.7815 18.8001 30.7808C18.8696 30.7808 18.9391 30.7743 19.0463 30.7686Z" fill="white"/>
</g>
</g>
<defs>
<clipPath id="clip0_846_6078">
<rect width="44" height="34" fill="white" transform="translate(0.734375)"/>
</clipPath>
</defs>
</svg>
