<svg width="110" height="56" viewBox="0 0 110 56" fill="none" xmlns="http://www.w3.org/2000/svg">
<g clip-path="url(#clip0_828_5259)">
<g opacity="0.6">
<path d="M0.941406 50.9616H4.52135V36.9031L10.0636 49.1588C10.7175 50.6423 11.6126 51.1671 13.368 51.1671C15.1237 51.1671 15.9842 50.6423 16.6384 49.1588L22.1804 36.9031V50.9616H25.7606V36.9262C25.7606 35.5569 25.2096 34.8949 24.0738 34.5528C21.3544 33.7084 19.5299 34.4386 18.7036 36.2644L13.2648 48.3599L7.99811 36.2644C7.20643 34.4386 5.34757 33.7084 2.6282 34.5528C1.49215 34.8949 0.941406 35.5569 0.941406 36.9262V50.9616Z" fill="white"/>
<path d="M28.7372 39.5188H32.316V47.264C32.2826 47.6848 32.4518 48.6723 34.413 48.7031C35.4135 48.7186 42.135 48.7031 42.1977 48.7031V39.4811H45.7849C45.8014 39.4811 45.7813 52.0572 45.7816 52.1107C45.8014 55.2124 41.9117 55.886 40.1189 55.9382H28.8149V53.5432C28.8347 53.5432 40.1105 53.5454 40.139 53.5426C42.443 53.3006 42.1709 52.1618 42.1707 51.7784V50.8446H34.5616C31.0214 50.8122 28.767 49.2758 28.7391 47.5082C28.7366 47.3444 28.8155 39.5961 28.7372 39.5188Z" fill="white"/>
<path d="M105.799 30.5927C103.598 30.5334 101.917 30.7369 100.48 31.3396C100.072 31.5109 99.4207 31.5153 99.3541 32.0243C99.5785 32.2583 99.6134 32.6076 99.7918 32.8954C100.135 33.4476 100.714 34.1875 101.231 34.5757C101.796 34.9995 102.378 35.4531 102.983 35.8201C104.06 36.4733 105.263 36.8462 106.3 37.5004C106.911 37.886 107.518 38.3717 108.114 38.807C108.409 39.0221 108.607 39.3567 108.99 39.4915C108.99 39.4709 108.99 39.4501 108.99 39.4294C108.789 39.1746 108.737 38.8242 108.552 38.558C108.281 38.2886 108.01 38.0188 107.739 37.7491C106.943 36.6992 105.934 35.7772 104.86 35.0112C104.005 34.4002 102.089 33.5749 101.732 32.5843C101.711 32.5635 101.69 32.5427 101.669 32.522C102.276 32.454 102.987 32.2356 103.547 32.0864C104.487 31.8355 105.328 31.9004 106.3 31.6509C106.738 31.5264 107.176 31.4017 107.614 31.2775C107.614 31.1943 107.614 31.1117 107.614 31.0285C107.123 30.5273 106.773 29.8642 106.237 29.4106C104.836 28.2241 103.307 27.0387 101.732 26.0502C100.858 25.5019 99.779 25.1457 98.8534 24.6811C98.5421 24.5249 97.9951 24.4436 97.7894 24.1832C97.3032 23.5668 97.0384 22.7854 96.6634 22.0674C95.8778 20.5633 95.1065 18.9205 94.4106 17.3381C93.9359 16.2589 93.6259 15.1947 93.0341 14.2266C90.1928 9.58111 87.1344 6.77715 82.3967 4.02112C81.3886 3.435 80.1749 3.20352 78.8922 2.90112C78.2042 2.8597 77.5156 2.818 76.8274 2.77659C76.4072 2.60196 75.9701 2.09081 75.576 1.8431C74.0065 0.857098 69.9807 -1.28763 68.8182 1.53203C68.0842 3.3118 69.9152 5.04855 70.57 5.95034C71.0297 6.58303 71.6182 7.29235 71.9466 8.00383C72.1627 8.4714 72.2 8.9403 72.3848 9.43518C72.8398 10.654 73.2354 11.98 73.8239 13.1066C74.1213 13.6765 74.4492 14.2769 74.8252 14.7867C75.0558 15.0994 75.4508 15.2372 75.5132 15.7202C75.1268 16.2579 75.1048 17.0925 74.8877 17.7737C73.9097 20.8402 74.2785 24.6518 75.7011 26.9214C76.1377 27.6181 77.1658 29.1123 78.5794 28.5393C79.8161 28.0384 79.5398 26.4862 79.8936 25.1167C79.9736 24.8062 79.9245 24.5779 80.0812 24.37C80.0812 24.3906 80.0812 24.4114 80.0812 24.4323C80.4567 25.179 80.8322 25.9256 81.2077 26.6722C82.0412 28.0073 83.5207 29.4026 84.7743 30.3441C85.4244 30.8323 85.9362 31.6764 86.7767 31.962C86.7767 31.9412 86.7767 31.9206 86.7767 31.8996C86.7556 31.8996 86.7349 31.8996 86.714 31.8996C86.5512 31.647 86.2964 31.5425 86.0885 31.3396C85.5987 30.8622 85.0542 30.2687 84.6492 29.7217C83.509 28.1822 82.5012 26.4972 81.5832 24.7434C81.1447 23.906 80.7636 22.982 80.394 22.1297C80.2515 21.8011 80.2532 21.3043 79.9563 21.134C79.5515 21.7586 78.9552 22.2635 78.6422 23.0009C78.1415 24.1797 78.0768 25.6173 77.8914 27.108C77.7816 27.1471 77.8304 27.1202 77.766 27.1701C76.8945 26.961 76.5882 26.0688 76.2645 25.3035C75.4452 23.3678 75.293 20.2509 76.0139 18.0228C76.2004 17.4464 77.0434 15.6306 76.7022 15.0981C76.5394 14.5666 76.0019 14.2593 75.7011 13.8532C75.329 13.3513 74.9574 12.6904 74.6998 12.1108C74.0293 10.6015 73.7163 8.90725 73.0104 7.3817C72.6731 6.65234 72.1024 5.91433 71.6338 5.26595C71.115 4.54771 70.5341 4.01868 70.1321 3.14993C69.9891 2.84129 69.7948 2.34719 70.0069 2.0299C70.0744 1.81574 70.1694 1.72642 70.3824 1.65656C70.7454 1.37825 71.7562 1.74915 72.1342 1.90537C73.1378 2.31985 73.9752 2.71457 74.8252 3.27446C75.2333 3.54356 75.6459 4.06389 76.1391 4.20794C76.3267 4.20794 76.5146 4.20794 76.7022 4.20794C77.5831 4.40935 78.57 4.27048 79.3929 4.51899C80.8475 4.95867 82.1511 5.64254 83.335 6.38595C86.9418 8.65063 89.8906 11.8745 91.9078 15.7202C92.2323 16.3393 92.3728 16.9304 92.6586 17.5871C93.2353 18.9116 93.9618 20.2744 94.5355 21.5696C95.1081 22.8618 95.6662 24.1659 96.4755 25.2412C96.9012 25.8065 98.5446 26.1097 99.2914 26.4235C99.8149 26.6436 100.673 26.8729 101.169 27.1701C102.116 27.7384 103.034 28.4148 103.922 29.0372C104.366 29.3483 105.731 30.0305 105.799 30.5927Z" fill="white"/>
<path fill-rule="evenodd" clip-rule="evenodd" d="M77.8283 6.88396C77.3695 6.87556 77.045 6.93378 76.7018 7.00824C76.7018 7.02906 76.7018 7.04991 76.7018 7.07051C76.7227 7.07051 76.7436 7.07051 76.7645 7.07051C76.9834 7.51773 77.3697 7.80552 77.6404 8.19078C77.849 8.62639 78.0575 9.062 78.2663 9.49733C78.2869 9.47673 78.3081 9.45591 78.3287 9.43532C78.7162 9.16377 78.8938 8.72927 78.8918 8.06625C78.7366 7.9038 78.7137 7.69995 78.5791 7.50609C78.4001 7.24782 78.0539 7.10109 77.8283 6.88396Z" fill="white"/>
</g>
<path d="M48.543 50.9628H58.8352C60.0401 50.9628 61.2107 50.7119 62.1401 50.2781C63.689 49.5709 64.4464 48.6125 64.4464 47.3569V44.7554C64.4464 43.7283 63.5858 42.7696 61.899 42.1309C61.0038 41.7882 59.9024 41.6058 58.8352 41.6058H54.4978C53.0524 41.6058 52.3638 41.1722 52.1918 40.2139C52.1573 40.0996 52.1573 40.0082 52.1573 39.8942V38.2741C52.1573 38.1826 52.1573 38.0911 52.1918 37.9772C52.3638 37.247 52.7427 37.0413 54.0161 36.9273C54.1195 36.9273 54.257 36.9043 54.3604 36.9043H64.5841V34.5312H54.5324C53.0867 34.5312 52.3293 34.6225 51.641 34.8276C49.5067 35.4896 48.5773 36.5395 48.5773 38.3653V40.442C48.5773 42.0397 50.4018 43.4089 53.4653 43.7283C53.8098 43.751 54.1538 43.7737 54.4978 43.7737H58.2155C58.3535 43.7737 58.4912 43.7737 58.5944 43.7968C59.7304 43.8882 60.2121 44.0934 60.5567 44.5042C60.763 44.7094 60.8318 44.9151 60.8318 45.1433V47.22C60.8318 47.4711 60.6598 47.7908 60.3158 48.0644C60.0058 48.3383 59.4895 48.521 58.801 48.5667C58.6632 48.5667 58.5601 48.5895 58.4224 48.5895H48.543V50.9628Z" fill="white"/>
<path d="M86.7794 46.8321C86.7794 49.2739 88.6037 50.6434 92.2871 50.9174C92.6311 50.9401 92.9757 50.9628 93.3197 50.9628H102.649V48.5895H93.2508C91.1511 48.5895 90.3594 48.0644 90.3594 46.8094V34.5312H86.7794V46.8321Z" fill="white"/>
<path d="M66.7312 46.9566V38.4951C66.7312 36.3454 68.2491 35.0416 71.2498 34.6299C71.5604 34.5845 71.9055 34.5615 72.2158 34.5615H79.0111C79.356 34.5615 79.6668 34.5845 80.0116 34.6299C83.0126 35.0416 84.5303 36.3454 84.5303 38.4951V46.9566C84.5303 48.7006 83.8857 49.6341 82.4002 50.2423L85.9266 53.4077H81.7699L78.9169 50.8467L76.0447 51.0277H72.2158C71.5604 51.0277 70.8707 50.9359 70.1116 50.7302C67.8351 50.1128 66.7312 48.9235 66.7312 46.9566ZM70.5953 46.7509C70.5953 46.8654 70.6296 46.9796 70.6641 47.1168C70.871 48.1002 71.8023 48.6491 73.2166 48.6491H76.469L73.4814 45.9669H77.6382L80.2439 48.3061C80.7239 48.0516 81.04 47.6624 81.1504 47.1626C81.1847 47.0484 81.1847 46.9339 81.1847 46.8196V38.701C81.1847 38.6095 81.1847 38.4951 81.1504 38.3806C80.9433 37.466 80.0119 36.9401 78.6323 36.9401H73.2166C71.6301 36.9401 70.5953 37.6262 70.5953 38.701V46.7509Z" fill="white"/>
<path fill-rule="evenodd" clip-rule="evenodd" d="M104.329 48.5218C104.329 50.0893 105.574 51.1455 106.967 51.1455C108.36 51.1455 109.606 50.0893 109.606 48.5218C109.606 46.9547 108.36 45.8984 106.967 45.8984C105.574 45.8984 104.329 46.9547 104.329 48.5218ZM109.015 48.5218C109.015 49.7111 108.1 50.5999 106.967 50.5999C105.821 50.5999 104.92 49.7111 104.92 48.5218C104.92 47.3325 105.821 46.4437 106.967 46.4437C108.1 46.4437 109.015 47.3325 109.015 48.5218ZM107.678 50.0191H108.269L107.404 48.704C107.868 48.6549 108.22 48.4309 108.22 47.8853C108.22 47.2765 107.833 47.0248 107.087 47.0248H105.912V50.0191H106.419V48.7248H106.89L107.678 50.0191ZM106.419 48.305V47.4445H107.002C107.305 47.4445 107.671 47.5005 107.671 47.8504C107.671 48.2698 107.34 48.305 106.96 48.305H106.419Z" fill="white"/>
</g>
<defs>
<clipPath id="clip0_828_5259">
<rect width="109" height="56" fill="white" transform="translate(0.734375)"/>
</clipPath>
</defs>
</svg>
