<svg width="49" height="49" viewBox="0 0 49 49" fill="none" xmlns="http://www.w3.org/2000/svg">
<path d="M4.16407 24.8672C4.16407 33.0615 8.92615 40.143 15.8315 43.4988L5.9564 16.4421C4.77259 19.093 4.16183 21.964 4.16407 24.8672ZM38.8415 23.8225C38.8415 21.264 37.9225 19.4922 37.1342 18.1131C36.0848 16.4078 35.1012 14.9637 35.1012 13.2584C35.1012 11.3554 36.5445 9.58397 38.5776 9.58397C38.6693 9.58397 38.7564 9.59539 38.8458 9.60051C35.1627 6.22621 30.2556 4.16602 24.8661 4.16602C17.6337 4.16602 11.2707 7.87673 7.5691 13.4972C8.0548 13.5117 8.51253 13.522 8.90133 13.522C11.0667 13.522 14.4185 13.2592 14.4185 13.2592C15.5345 13.1934 15.6661 14.8325 14.5513 14.9645C14.5513 14.9645 13.4298 15.0965 12.1819 15.1618L19.7207 37.5856L24.2511 23.9982L21.0257 15.1611C19.911 15.0957 18.8549 14.9637 18.8549 14.9637C17.7393 14.8983 17.8701 13.1927 18.9856 13.2584C18.9856 13.2584 22.4045 13.5212 24.4386 13.5212C26.6036 13.5212 29.9559 13.2584 29.9559 13.2584C31.0726 13.1927 31.2038 14.8317 30.0886 14.9637C30.0886 14.9637 28.9648 15.0957 27.7192 15.1611L35.2005 37.4151L37.2654 30.5148C38.1604 27.6514 38.8415 25.5948 38.8415 23.8225Z" fill="white"/>
<path d="M25.2308 26.6806L19.0195 44.7295C20.9185 45.2889 22.888 45.5729 24.8676 45.5729C27.2784 45.5729 29.5903 45.1562 31.7423 44.3994C31.6849 44.3089 31.6356 44.2135 31.595 44.1142L25.2308 26.6806ZM43.0328 14.9375C43.1218 15.5969 43.1722 16.3048 43.1722 17.0662C43.1722 19.167 42.7799 21.5285 41.5981 24.4814L35.2746 42.7643C41.4291 39.1753 45.5688 32.5074 45.5688 24.8702C45.5692 21.2709 44.6498 17.8864 43.0328 14.9375Z" fill="white"/>
<path d="M24.8666 0.736328C11.5604 0.736328 0.734375 11.5616 0.734375 24.8678C0.734375 38.1755 11.5604 49.0004 24.8666 49.0004C38.1724 49.0004 49 38.1755 49 24.8678C48.9996 11.5616 38.1724 0.736328 24.8666 0.736328ZM24.8666 47.8942C12.1706 47.8942 1.84089 37.5645 1.84089 24.8678C1.84089 12.1718 12.1702 1.84284 24.8666 1.84284C37.5622 1.84284 47.8911 12.1718 47.8911 24.8678C47.8911 37.5645 37.5622 47.8942 24.8666 47.8942Z" fill="white"/>
</svg>
