<svg width="216" height="27" viewBox="0 0 216 27" fill="none" xmlns="http://www.w3.org/2000/svg">
<path fill-rule="evenodd" clip-rule="evenodd" d="M22.3171 0.375C16.3655 0.375 12.6467 3.33289 11.1581 9.24866C13.3901 6.29077 15.9937 5.18178 18.9691 5.92082C20.6667 6.34237 21.8807 7.56681 23.2232 8.92243C25.4114 11.1299 27.9442 13.6846 33.4752 13.6846C39.4259 13.6846 43.1456 10.7267 44.6333 4.81183C42.4022 7.76971 39.7985 8.8787 36.8231 8.13879C35.1247 7.71724 33.9107 6.4928 32.5682 5.13805C30.38 2.92882 27.848 0.375 22.3171 0.375ZM11.1581 13.6846C5.20735 13.6846 1.48769 16.6425 0 22.5583C2.23197 19.6004 4.83564 18.4914 7.81015 19.2304C9.50861 19.652 10.7226 20.8764 12.0651 22.232C14.2533 24.4395 16.7853 26.9942 22.3171 26.9942C28.2678 26.9942 31.9875 24.0372 33.4752 18.1214C31.2432 21.0793 28.6395 22.1883 25.6642 21.4493C23.9666 21.0268 22.7526 19.8024 21.4101 18.4477C19.2219 16.2402 16.6891 13.6846 11.1581 13.6846Z" fill="white"/>
<path fill-rule="evenodd" clip-rule="evenodd" d="M66.9463 11.5917H63.0518V19.0843C63.0518 21.0828 64.3706 21.0513 66.9463 20.9262V23.955C61.732 24.5794 59.6592 23.1433 59.6592 19.0843V11.5917H56.7695V8.3443H59.6592V4.15148L63.0518 3.15182V8.3443H66.9463V11.5917ZM81.7917 8.3443H85.1834V23.955H81.7917V21.7073C80.5979 23.3611 78.7446 24.3608 76.2949 24.3608C72.0234 24.3608 68.4743 20.7706 68.4743 16.1492C68.4743 11.4981 72.0234 7.93848 76.2949 7.93848C78.7446 7.93848 80.5979 8.93727 81.7917 10.5614V8.3443ZM76.8293 21.1449C79.656 21.1449 81.7917 19.0529 81.7917 16.1492C81.7917 13.2455 79.656 11.1544 76.8293 11.1544C74.0026 11.1544 71.8668 13.2464 71.8668 16.1492C71.8668 19.0529 74.0026 21.1449 76.8293 21.1449ZM90.8368 6.003C89.6439 6.003 88.6704 5.00421 88.6704 3.84887C88.6732 3.27629 88.9027 2.72814 89.3088 2.32441C89.7148 1.92068 90.2642 1.69427 90.8368 1.69474C91.4095 1.69404 91.9592 1.92035 92.3654 2.3241C92.7716 2.72786 93.0013 3.27614 93.0041 3.84887C93.0041 5.00334 92.0306 6.003 90.8368 6.003ZM89.141 23.955V8.3443H92.5335V23.955H89.141ZM96.4596 23.955V1.16211H99.8513V23.9541H96.4596V23.955ZM121.869 8.3443H125.45L120.519 23.955H117.189L113.923 13.4336L110.625 23.955H107.296L102.364 8.3443H105.945L108.992 19.115L112.29 8.3443H115.525L118.791 19.115L121.869 8.3443ZM129.658 6.003C128.465 6.003 127.491 5.00421 127.491 3.84887C127.494 3.27614 127.724 2.72786 128.13 2.3241C128.536 1.92035 129.086 1.69404 129.658 1.69474C130.231 1.69404 130.781 1.92035 131.187 2.3241C131.593 2.72786 131.823 3.27614 131.826 3.84887C131.826 5.00334 130.852 6.003 129.658 6.003ZM127.963 23.955V8.3443H131.354V23.955H127.963ZM143.541 7.93848C147.059 7.93848 149.571 10.3113 149.571 14.3703V23.9541H146.18V14.7131C146.18 12.3403 144.798 11.0923 142.662 11.0923C140.432 11.0923 138.673 12.4033 138.673 15.5877V23.955H135.28V8.3443H138.673V10.3427C139.709 8.7195 141.405 7.93848 143.541 7.93848ZM165.652 2.10055H169.045V23.9541H165.652V21.7064C164.459 23.3611 162.606 24.3599 160.156 24.3599C155.885 24.3599 152.336 20.7697 152.336 16.1483C152.336 11.4972 155.885 7.93761 160.156 7.93761C162.606 7.93761 164.459 8.9364 165.652 10.5605V2.10055ZM160.69 21.1449C163.517 21.1449 165.652 19.0529 165.652 16.1492C165.652 13.2455 163.517 11.1544 160.69 11.1544C157.863 11.1544 155.728 13.2464 155.728 16.1492C155.728 19.0529 157.863 21.1449 160.69 21.1449ZM180.415 24.3608C175.672 24.3608 172.123 20.7706 172.123 16.1492C172.123 11.4981 175.672 7.93848 180.415 7.93848C183.492 7.93848 186.163 9.53025 187.419 11.966L184.497 13.6522C183.806 12.1846 182.268 11.248 180.383 11.248C177.62 11.248 175.515 13.34 175.515 16.1492C175.515 18.9593 177.62 21.0513 180.383 21.0513C182.268 21.0513 183.806 20.0831 184.56 18.647L187.481 20.3018C186.163 22.7681 183.492 24.3608 180.415 24.3608ZM193.072 12.6526C193.072 15.4941 201.521 13.7764 201.521 19.5531C201.521 22.6754 198.788 24.3608 195.397 24.3608C192.256 24.3608 189.994 22.9553 188.989 20.7076L191.91 19.0222C192.412 20.4268 193.669 21.27 195.397 21.27C196.904 21.27 198.066 20.7706 198.066 19.5208C198.066 16.743 189.617 18.3042 189.617 12.7155C189.617 9.78038 192.161 7.93848 195.365 7.93848C197.941 7.93848 200.077 9.12531 201.176 11.1859L198.318 12.7776C197.752 11.5602 196.653 10.9978 195.365 10.9978C194.14 10.9978 193.072 11.5287 193.072 12.6526ZM207.552 12.6526C207.552 15.4941 216 13.7764 216 19.5531C216 22.6754 213.268 24.3608 209.876 24.3608C206.735 24.3608 204.474 22.9553 203.468 20.7076L206.389 19.0222C206.892 20.4268 208.148 21.27 209.876 21.27C211.383 21.27 212.546 20.7706 212.546 19.5208C212.546 16.743 204.097 18.3042 204.097 12.7155C204.097 9.78038 206.64 7.93848 209.845 7.93848C212.42 7.93848 214.555 9.12531 215.655 11.1859L212.797 12.7776C212.232 11.5602 211.132 10.9978 209.845 10.9978C208.62 10.9978 207.552 11.5287 207.552 12.6526Z" fill="white"/>
</svg>
