<svg width="129" height="36" viewBox="0 0 129 36" fill="none" xmlns="http://www.w3.org/2000/svg">
<path d="M18.0329 0.0122909L29.2164 0L10.4536 18.7026L5.56365 23.552L0 17.9965L18.0329 0.0122909ZM17.9289 16.7115C18.074 16.5203 18.341 16.6145 18.5437 16.5899L29.2068 16.5927L19.4885 26.2751L13.8961 20.7319L17.9289 16.7115Z" fill="white"/>
<path opacity="0.54" d="M44.936 7.81445L57.1273 7.81855L57.1259 10.2125C53.9367 10.2125 50.7461 10.203 47.5555 10.2166C47.3118 10.2972 47.4268 10.6017 47.3994 10.7888L47.409 17.2279C47.4898 17.4696 47.7965 17.3535 47.9855 17.3836L56.1687 17.3795V19.7707C53.6245 19.7694 51.0816 19.7694 48.5374 19.7707C48.1594 19.7694 47.7774 19.7461 47.4035 19.8103L47.3748 28.9001C46.5545 28.8673 45.7357 28.8974 44.9154 28.8796L44.9141 8.20093L44.936 7.81445ZM60.0837 7.81855H62.5868L62.5882 22.1251L62.5608 28.8619C61.7461 28.8468 60.9313 28.8427 60.1179 28.8646C60.0549 28.5314 60.0809 28.1927 60.0809 27.8567L60.0837 7.81855ZM84.584 9.59253L87.0954 9.5939L87.0995 13.8274C88.3278 13.8575 89.563 13.7728 90.7885 13.8697C90.7543 14.6291 90.7831 15.3884 90.7694 16.1477C89.5479 16.1504 88.3278 16.1599 87.1077 16.1422L87.0981 24.5737C87.1242 25.3549 87.2912 26.2985 88.0526 26.7014C88.9221 27.1944 89.9902 26.9622 90.8132 26.487V28.9397C89.9067 29.3494 88.8728 29.3986 87.8992 29.2661C86.5271 29.0571 85.2126 28.1244 84.7976 26.7683C84.5224 26.0254 84.5854 25.2238 84.5799 24.4481L84.5744 16.2364L84.5128 16.1668C83.646 16.1203 82.7765 16.1736 81.9083 16.1436C81.9138 15.3706 81.8782 14.5976 81.9275 13.826C82.8094 13.811 83.6953 13.8657 84.5758 13.7987L84.584 9.59253ZM95.1937 9.58434C96.029 9.61301 96.8643 9.57478 97.6983 9.60346L97.7558 9.66628C97.7873 11.0565 97.7133 12.4508 97.7886 13.8383C98.9786 13.8165 100.169 13.8342 101.357 13.8274L101.365 16.1299C100.169 16.175 98.9676 16.1477 97.7708 16.1408L97.7571 24.7185C97.7558 25.4655 97.9721 26.3491 98.6965 26.7164C99.5852 27.1999 100.663 26.9513 101.489 26.457L101.486 28.9233C100.605 29.3194 99.6126 29.3958 98.6623 29.2866C97.4285 29.1227 96.2207 28.4276 95.6415 27.3009C95.3622 26.711 95.206 26.0582 95.18 25.4068V16.1504C94.3132 16.149 93.4478 16.1531 92.5824 16.1504L92.5879 13.8192C93.441 13.8424 94.2941 13.8124 95.1472 13.8411C95.2375 12.4263 95.1403 11.0019 95.1937 9.58434ZM107.384 13.9066C109.117 13.1897 111.118 13.176 112.888 13.7769C114.916 14.4747 116.486 16.2392 117.061 18.2863C117.437 19.4211 117.422 20.627 117.369 21.8069L105.449 21.8192C105.547 23.0852 105.927 24.3757 106.809 25.3262C108.061 26.7833 110.218 27.3241 112.039 26.7519C113.317 26.3764 114.314 25.3958 114.97 24.2692C115.696 24.5928 116.401 24.9616 117.124 25.2934C116.135 27.1726 114.337 28.6652 112.224 29.0694C110.489 29.3931 108.591 29.4013 107 28.5464C104.935 27.5235 103.514 25.4409 103.109 23.2012C102.814 21.4805 102.906 19.6601 103.555 18.0268C104.236 16.2337 105.612 14.6809 107.384 13.9066ZM108.327 16.0657C106.869 16.7376 105.929 18.2303 105.636 19.7707L114.778 19.742C114.633 18.7356 114.274 17.7127 113.535 16.9848C112.239 15.6 110.025 15.3296 108.327 16.0657ZM122.796 16.2637C123.75 13.9517 126.682 12.7376 129 13.7059V16.4044C128.027 16.022 126.935 15.7858 125.907 16.0876C124.502 16.5041 123.462 17.7537 123.064 19.1289C122.79 20.0575 122.893 21.0271 122.904 21.979C122.797 23.2108 122.957 24.444 122.876 25.6758C122.942 26.7396 122.819 27.8035 122.909 28.8687C122.058 28.9097 121.206 28.866 120.355 28.8946C120.306 25.684 120.349 22.472 120.335 19.26L120.354 13.8534C121.152 13.8752 121.952 13.8506 122.752 13.8697C122.824 14.6673 122.663 15.4689 122.796 16.2637ZM66.1773 13.8233C67.0263 13.8588 67.8821 13.7728 68.727 13.8684L68.7147 22.8189C68.7065 23.9127 68.8626 25.1077 69.6212 25.9571C70.6003 27.0387 72.2585 27.2367 73.5978 26.8093C75.3875 26.1702 76.6363 24.2801 76.5638 22.39L76.5911 13.8233L79.1477 13.8288L79.1327 28.8578C78.322 28.8441 77.5127 28.8578 76.7034 28.8482L76.6938 26.7096C76.1694 27.3665 75.6189 28.0315 74.8671 28.4453C73.328 29.4136 71.3753 29.542 69.6513 29.0462C68.5394 28.7116 67.5713 27.9346 67.0139 26.9185C66.3525 25.8014 66.1855 24.4809 66.1471 23.2081L66.1773 13.8233Z" fill="white"/>
<path d="M8.32422 26.2852L13.8988 20.7324L19.4912 26.2756L19.5145 26.3002L13.9002 31.8475L8.32422 26.2852Z" fill="white"/>
<path d="M13.8984 31.8461L19.5128 26.2988L29.2118 35.9813C25.5584 35.9895 21.9064 35.9786 18.2543 35.9868C18.0462 36.0332 17.9175 35.8434 17.7846 35.7259L13.8984 31.8461Z" fill="white"/>
</svg>
