<svg width="56" height="46" viewBox="0 0 56 46" fill="none" xmlns="http://www.w3.org/2000/svg">
<path fill-rule="evenodd" clip-rule="evenodd" d="M9.10563 0.0572896C8.82326 -0.0637392 8.49525 0.0111331 8.29303 0.242774C8.09081 0.474415 8.06034 0.81018 8.21755 1.07458C13.1835 9.42659 17.2525 22.7496 8.08029 34.4337C7.86768 34.7045 7.87957 35.0892 8.10849 35.3463C8.33742 35.6035 8.71742 35.659 9.01005 35.478C15.0401 31.749 23.7003 29.2794 35.1475 33.9055C35.3845 34.0013 35.6546 33.9619 35.8545 33.8023C36.0544 33.6428 36.1532 33.3878 36.1131 33.1348C34.8096 24.9134 30.6147 17.743 25.487 12.091C20.3613 6.44101 14.2703 2.271 9.10563 0.0572896ZM10.9842 32.7691C17.7457 21.9571 14.7411 10.2772 10.5244 2.28816C15.0372 4.56766 20.0896 8.25455 24.4376 13.0472C29.1702 18.2637 33.0385 24.7568 34.4937 32.1293C24.7284 28.5248 16.895 29.8947 10.9842 32.7691Z" fill="white"/>
<path fill-rule="evenodd" clip-rule="evenodd" d="M22.8998 5.99998C23.0522 5.68462 23.4111 5.5276 23.7455 5.63005C27.8797 6.897 32.7286 10.5396 36.9947 15.3902C41.2738 20.2555 45.0399 26.4184 46.9581 32.829C47.036 33.0896 46.9587 33.3719 46.7589 33.5562C46.5592 33.7404 46.272 33.7941 46.0193 33.6946C45.8051 33.6102 45.6011 33.5278 45.4044 33.4483C44.6112 33.1278 43.9361 32.855 43.1891 32.6946C42.2936 32.5023 41.2935 32.4765 39.9457 32.8215C39.5711 32.9174 39.1889 32.6949 39.0864 32.3213C36.3024 22.172 31.3479 12.5875 23.1347 6.89425C22.8471 6.69493 22.7474 6.31534 22.8998 5.99998ZM28.668 9.72932C34.3241 15.5058 37.9929 23.2691 40.272 31.2927C41.5111 31.0573 42.5364 31.1007 43.4863 31.3047C44.0603 31.4279 44.607 31.6115 45.1413 31.8148C43.1864 26.1459 39.7814 20.7084 35.9307 16.3301C33.5753 13.652 31.0762 11.3962 28.668 9.72932Z" fill="white"/>
<path fill-rule="evenodd" clip-rule="evenodd" d="M51.9959 36.0544C52.2188 35.8512 52.2893 35.529 52.1716 35.251C52.054 34.973 51.7739 34.7999 51.4732 34.8193L4.98321 37.8202C4.74374 37.8356 4.52832 37.9714 4.41069 38.181C4.29305 38.3906 4.28915 38.6456 4.40033 38.8587L5.85291 41.6432C5.13803 42.0611 4.4849 42.5627 3.9121 43.012C3.82065 43.0837 3.73137 43.154 3.64408 43.2228L3.6413 43.225C3.17245 43.5945 2.76095 43.9187 2.37927 44.1686C1.90845 44.4768 1.61582 44.5785 1.44354 44.5785C1.05188 44.5785 0.734375 44.8967 0.734375 45.2893C0.734375 45.6818 1.05188 46 1.44354 46C2.05924 46 2.65306 45.6872 3.15489 45.3587C3.59371 45.0714 4.06401 44.7005 4.53052 44.3327C4.61596 44.2653 4.70127 44.198 4.78623 44.1314C5.48335 43.5846 6.17777 43.0666 6.87778 42.6978C6.97411 42.6918 7.07076 42.6659 7.16181 42.6182C7.23542 42.5796 7.29945 42.5299 7.35294 42.4722C7.63053 42.3556 7.90928 42.2665 8.18971 42.2123C8.32903 42.2281 8.52873 42.3153 8.85346 42.5777C9.07914 42.76 9.29399 42.9635 9.54581 43.202C9.71787 43.365 9.90741 43.5445 10.1292 43.7446C11.162 44.6761 12.5752 45.7328 14.7545 45.9949C14.7825 45.9983 14.8107 46 14.839 46C16.4782 46 17.6402 45.0209 18.58 44.229L18.6439 44.1751C19.6629 43.3173 20.4554 42.6833 21.5367 42.6833C22.6179 42.6833 23.4104 43.3173 24.4294 44.1751L24.4934 44.229C25.4331 45.0209 26.5951 46 28.2344 46C29.8736 46 31.0356 45.0209 31.9754 44.229L32.0394 44.1751C33.0583 43.3173 33.8508 42.6833 34.9321 42.6833C36.0133 42.6833 36.8059 43.3173 37.8248 44.1751L37.8373 44.1856C37.9086 44.2861 38.0032 44.3638 38.1099 44.4147C39.0103 45.1658 40.1167 46 41.6298 46C43.269 46 44.431 45.0209 45.3708 44.229L45.4348 44.1751C46.4537 43.3173 47.2463 42.6833 48.3275 42.6833C49.4087 42.6833 50.2013 43.3173 51.2202 44.1751L51.2842 44.229C52.224 45.0209 53.386 46 55.0252 46C55.4169 46 55.7344 45.6818 55.7344 45.2893C55.7344 44.8967 55.4169 44.5785 55.0252 44.5785C53.944 44.5785 53.1514 43.9445 52.1325 43.0867L52.0685 43.0328C51.1287 42.2409 49.9667 41.2618 48.3275 41.2618C46.6883 41.2618 45.5263 42.2409 44.5865 43.0328L44.5225 43.0867C43.5036 43.9445 42.711 44.5785 41.6298 44.5785C40.9407 44.5785 40.3688 44.321 39.7809 43.9121C44.1995 41.7813 48.5419 39.2026 51.9959 36.0544ZM38.5469 42.9266C42.4392 41.089 46.2454 38.9298 49.4333 36.3754L6.16241 39.1685L7.13554 41.0338C7.42414 40.9309 7.71975 40.85 8.02143 40.7982C8.06101 40.7914 8.10109 40.788 8.14125 40.788C8.78835 40.788 9.32011 41.1288 9.74369 41.4711C10.0031 41.6807 10.2948 41.9558 10.5856 42.2301C10.7521 42.3872 10.9184 42.5441 11.0781 42.688C12.0075 43.5264 13.144 44.358 14.88 44.5782C15.9404 44.5624 16.7257 43.9336 17.7317 43.0867L17.7957 43.0328C18.7354 42.2409 19.8974 41.2618 21.5367 41.2618C23.1759 41.2618 24.3379 42.2409 25.2777 43.0328L25.3417 43.0867C26.3606 43.9445 27.1531 44.5785 28.2344 44.5785C29.3156 44.5785 30.1082 43.9445 31.1271 43.0867L31.1911 43.0328C32.1309 42.2409 33.2928 41.2618 34.9321 41.2618C36.4987 41.2618 37.6294 42.1561 38.5469 42.9266Z" fill="white"/>
</svg>
