<svg width="122" height="34" viewBox="0 0 122 34" fill="none" xmlns="http://www.w3.org/2000/svg">
<g clip-path="url(#clip0_828_5241)">
<path fill-rule="evenodd" clip-rule="evenodd" d="M20.9608 3.85703V33.4368L0 29.8758C0 29.8758 2.50121 10.8779 2.59378 10.209C2.71846 9.32385 2.74868 9.29509 3.70458 9.00007C3.72492 8.99361 4.36962 8.7975 5.39585 8.48534C5.84756 8.34793 6.37318 8.18805 6.95201 8.01195C7.15414 6.58964 7.8673 4.75255 8.80431 3.29032C10.1362 1.21202 11.7787 0.0420507 13.4279 -0.0043399C14.2828 -0.0293908 14.9959 0.255447 15.5523 0.839966C15.5919 0.88265 15.6297 0.926253 15.6675 0.970788C15.677 0.969996 15.6865 0.969193 15.6959 0.968391C15.775 0.961681 15.8536 0.95502 15.9329 0.95502H15.9376C17.2147 0.95687 18.2717 1.67221 18.9933 3.02496C19.2172 3.44433 19.374 3.86185 19.4807 4.20143C19.6436 4.1519 19.7895 4.10752 19.9166 4.06887C20.2872 3.95619 20.4976 3.89223 20.499 3.89154C20.5943 3.86362 20.7836 3.82987 20.9608 3.85703ZM17.3891 4.83743C17.7617 4.7241 18.1111 4.61785 18.4313 4.52059C18.1715 3.69113 17.5557 2.30034 16.3041 2.06746C16.6933 3.05373 16.7925 4.19494 16.8047 5.01512C17.005 4.95423 17.2 4.89492 17.3891 4.83743ZM14.0252 5.86089C14.6028 5.68524 15.1676 5.51348 15.7081 5.34913C15.7194 4.45379 15.6203 3.1298 15.164 2.19457C14.6785 2.39127 14.2686 2.73549 13.9758 3.04445C13.188 3.87484 12.5466 5.1413 12.2085 6.41334C12.8193 6.22765 13.429 6.0422 14.0252 5.86089ZM14.4528 1.32892C14.1741 1.14893 13.8482 1.06542 13.461 1.07377C10.9154 1.14614 8.69474 5.05131 8.12702 7.65384C8.64812 7.49576 9.19524 7.32926 9.75753 7.15814C10.1655 7.03398 10.5815 6.90739 11.0013 6.77982C11.3215 5.12646 12.1244 3.41279 13.172 2.30869C13.5762 1.88283 14.007 1.55624 14.4528 1.32892ZM14.8705 14.6278L15.9256 10.7505C15.9256 10.7505 15.016 10.3051 13.2383 10.4174C8.62413 10.7031 6.53282 13.8726 6.73403 17.0002C6.86827 19.0881 8.12061 19.961 9.21827 20.726C10.0746 21.3229 10.8367 21.8541 10.9005 22.8454C10.9354 23.3919 10.5897 24.1648 9.62248 24.2251C8.1414 24.3169 6.29103 22.9456 6.29103 22.9456L5.58354 25.9016C5.58354 25.9016 7.42166 27.8361 10.7607 27.6292C13.5424 27.4566 15.4732 25.2707 15.2682 22.0753C15.1105 19.6185 13.3492 18.5092 11.9571 17.6324C11.0476 17.0596 10.2956 16.586 10.2516 15.9007C10.2308 15.5825 10.2525 14.3151 12.2985 14.188C13.6936 14.1017 14.8705 14.6278 14.8705 14.6278Z" fill="white"/>
<path opacity="0.8" d="M26.0172 6.16117C25.8935 6.15097 23.4697 6.1148 23.4697 6.1148C23.4697 6.1148 21.4427 4.18122 21.2424 3.98453C21.1678 3.91123 21.0668 3.87319 20.9609 3.85742L20.9619 33.4351L30.0458 31.2177C30.0458 31.2177 26.3393 6.60284 26.3157 6.43395C26.2921 6.26507 26.1409 6.17137 26.0172 6.16117Z" fill="white"/>
<path d="M42.0101 18.8698C40.9655 18.313 40.4286 17.8437 40.4286 17.1986C40.4286 16.3778 41.1744 15.8504 42.3389 15.8504C43.6945 15.8504 44.9049 16.4072 44.9049 16.4072L45.8596 13.5342C45.8596 13.5342 44.9818 12.8597 42.3979 12.8597C38.8022 12.8597 36.3102 14.8823 36.3102 17.7259C36.3102 19.3382 37.4738 20.5695 39.0261 21.4483C40.2797 22.1513 40.7275 22.6501 40.7275 23.3827C40.7275 24.1446 40.1008 24.7603 38.9372 24.7603C37.203 24.7603 35.5654 23.8805 35.5654 23.8805L34.5508 26.7535C34.5508 26.7535 36.0638 27.7501 38.6092 27.7501C42.3099 27.7501 44.9659 25.9621 44.9659 22.7375C44.9649 21.0093 43.6224 19.778 42.0101 18.8698Z" fill="white"/>
<path d="M56.7527 12.8311C54.9322 12.8311 53.4998 13.6814 52.3961 14.9707L52.3362 14.9412L53.9176 6.82192H49.7991L45.8006 27.487H49.919L51.2916 20.4231C51.8284 17.7554 53.2309 16.1146 54.5444 16.1146C55.469 16.1146 55.8279 16.7302 55.8279 17.61C55.8279 18.1667 55.7679 18.8413 55.6489 19.398L54.0975 27.4879H58.2161L59.8271 19.1339C60.0064 18.2541 60.1261 17.1996 60.1261 16.4955C60.1244 14.2087 58.901 12.8311 56.7527 12.8311Z" fill="white"/>
<path d="M69.435 12.8311C64.4807 12.8311 61.1992 17.2281 61.1992 22.1229C61.1992 25.2591 63.1682 27.7796 66.869 27.7796C71.7332 27.7796 75.0158 23.5005 75.0158 18.4879C75.0158 15.5863 73.2845 12.8311 69.435 12.8311ZM67.4058 24.6738C66.0031 24.6738 65.4062 23.5014 65.4062 22.0354C65.4062 19.7201 66.6301 15.9388 68.8681 15.9388C70.3304 15.9388 70.8071 17.1701 70.8071 18.3719C70.8071 20.863 69.5848 24.6738 67.4058 24.6738Z" fill="white"/>
<path d="M85.5498 12.8311C82.7699 12.8311 81.1924 15.2348 81.1924 15.2348H81.1334L81.3723 13.0658H77.7316C77.5528 14.5317 77.2237 16.7587 76.8963 18.4299L74.0313 33.2321H78.1498L79.283 27.2523H79.3732C79.3732 27.2523 80.2181 27.7796 81.7905 27.7796C86.6245 27.7796 89.7874 22.9143 89.7874 17.9891C89.7874 15.2643 88.5635 12.8311 85.5498 12.8311ZM81.6106 24.7317C80.5415 24.7317 79.9088 24.1455 79.9088 24.1455L80.5955 20.3643C81.0732 17.8437 82.4158 16.1725 83.8486 16.1725C85.1021 16.1725 85.4896 17.3155 85.4896 18.4005C85.4896 21.0093 83.9082 24.7317 81.6106 24.7317Z" fill="white"/>
<path d="M95.6661 7.02715C94.3536 7.02715 93.309 8.05322 93.309 9.37192C93.309 10.5738 94.0847 11.3946 95.2485 11.3946H95.3081C96.5916 11.3946 97.6953 10.5443 97.7254 9.04987C97.7254 7.87742 96.9196 7.02715 95.6661 7.02715Z" fill="white"/>
<path d="M89.9072 27.487H94.0245L96.8305 13.1541H92.682L89.9072 27.487Z" fill="white"/>
<path d="M107.305 13.1247H104.44L104.589 12.4501C104.827 11.0725 105.663 9.84123 107.036 9.84123C107.769 9.84123 108.348 10.0465 108.348 10.0465L109.154 6.88083C109.154 6.88083 108.438 6.5293 106.916 6.5293C105.453 6.5293 103.992 6.93969 102.887 7.87742C101.485 9.04987 100.828 10.7495 100.5 12.4501L100.382 13.1247H98.471L97.8741 16.1735H99.7846L97.6062 27.4879H101.725L103.903 16.1735H106.738L107.305 13.1247Z" fill="white"/>
<path d="M117.212 13.1542C117.212 13.1542 114.637 19.525 113.482 23.0026H113.421C113.343 21.8827 112.407 13.1542 112.407 13.1542H108.08L110.558 26.3146C110.618 26.6072 110.588 26.7839 110.468 26.9891C109.99 27.8974 109.184 28.7772 108.229 29.4223C107.454 29.979 106.588 30.3305 105.902 30.5652L107.036 33.9949C107.872 33.8192 109.602 33.1447 111.064 31.7965C112.945 30.0673 114.675 27.3996 116.465 23.7646L121.509 13.1532H117.212V13.1542Z" fill="white"/>
</g>
<defs>
<clipPath id="clip0_828_5241">
<rect width="122" height="34" fill="white" transform="translate(0 -0.00585938)"/>
</clipPath>
</defs>
</svg>
