<svg width="70" height="36" viewBox="0 0 70 36" fill="none" xmlns="http://www.w3.org/2000/svg">
<g clip-path="url(#clip0_825_5101)">
<path d="M6.19451 7.58984H16.4275C19.4312 7.61633 21.6076 8.51499 22.9567 10.2859C24.3058 12.0569 24.7513 14.4754 24.2931 17.5414C24.1149 18.9423 23.7204 20.3168 23.1095 21.6648C22.524 23.0128 21.7094 24.2286 20.6658 25.3124C19.393 26.6868 18.0312 27.5591 16.5802 27.9291C15.1293 28.2992 13.6274 28.4842 12.0747 28.4842H7.49272L6.04178 36.0173H0.734375L6.19451 7.58984ZM10.6619 12.1097L8.37093 24.004C8.52364 24.0304 8.67637 24.0437 8.82912 24.0437H9.36368C11.8074 24.0701 13.8437 23.819 15.4729 23.2903C17.102 22.7353 18.1966 20.8058 18.7566 17.5018C19.2148 14.7264 18.7566 13.1273 17.3821 12.7044C16.0329 12.2815 14.3401 12.0833 12.3037 12.1097C11.9983 12.1361 11.7055 12.1493 11.4255 12.1493C11.171 12.1494 10.9037 12.1494 10.6237 12.1493L10.6619 12.1097Z" fill="white"/>
<path d="M30.3421 0.0195312H35.6113L34.1222 7.59227H38.8568C41.4532 7.64515 43.3878 8.20023 44.6606 9.25748C45.9588 10.3148 46.3406 12.3236 45.8061 15.2839L43.2478 28.4866H37.9022L40.3459 15.8786C40.6005 14.5571 40.5241 13.6187 40.1168 13.0637C39.7095 12.5086 38.8313 12.231 37.4822 12.231L33.244 12.1914L30.113 28.4866H24.8438L30.3421 0.0195312Z" fill="white"/>
<path d="M51.464 7.58984H61.697C64.7007 7.61633 66.8771 8.51499 68.2263 10.2859C69.5753 12.0569 70.0209 14.4754 69.5627 17.5414C69.3844 18.9423 68.9899 20.3168 68.379 21.6648C67.7935 23.0128 66.9789 24.2286 65.9353 25.3124C64.6625 26.6868 63.3007 27.5591 61.8497 27.9291C60.3988 28.2992 58.8969 28.4842 57.3442 28.4842H52.7622L51.3113 36.0173H46.0039L51.464 7.58984ZM55.9314 12.1097L53.6404 24.004C53.7932 24.0304 53.9459 24.0437 54.0986 24.0437H54.6332C57.0769 24.0701 59.1133 23.819 60.7424 23.2903C62.3715 22.7353 63.4661 20.8058 64.0262 17.5018C64.4843 14.7264 64.0261 13.1273 62.6516 12.7044C61.3024 12.2815 59.6096 12.0833 57.5733 12.1097C57.2678 12.1361 56.9751 12.1493 56.6951 12.1493C56.4405 12.1494 56.1732 12.1494 55.8932 12.1493L55.9314 12.1097Z" fill="white"/>
</g>
<defs>
<clipPath id="clip0_825_5101">
<rect width="69" height="36" fill="white" transform="translate(0.734375)"/>
</clipPath>
</defs>
</svg>
