<svg width="193" height="36" viewBox="0 0 193 36" fill="none" xmlns="http://www.w3.org/2000/svg">
<path d="M50.9119 19.5147H39.5844C40.1393 21.6217 41.6068 22.6864 43.9895 22.6864C45.7256 22.6407 47.4149 22.1206 48.8695 21.1839L50.4199 23.8924C48.504 25.2634 46.1895 25.9839 43.8236 25.9457C41.1634 25.9457 39.141 25.1803 37.728 23.6863C36.3232 22.1851 35.5669 20.2022 35.6198 18.159C35.6198 15.8995 36.3406 14.027 37.8109 12.5498C39.2812 11.0727 41.1634 10.3327 43.4918 10.3327C45.6801 10.3327 47.5108 11.0162 48.9267 12.3578C50.3427 13.6994 51.0606 15.5041 51.0606 17.8314C51.0497 18.3952 51 18.9576 50.9119 19.5147ZM39.5844 16.6395H47.2619C46.9072 14.6963 45.477 13.5186 43.4918 13.5186C41.5067 13.5186 40.0564 14.6963 39.5844 16.6395Z" fill="white"/>
<path d="M65.4431 10.6942H69.1618V25.6068H65.4431V23.884C64.8415 24.5529 64.1007 25.0858 63.2713 25.446C62.4419 25.8062 61.5435 25.9853 60.6375 25.9711C59.6307 25.9998 58.6295 25.8144 57.7016 25.4275C56.7737 25.0406 55.941 24.4612 55.2598 23.7286C53.8468 22.2232 53.1545 20.3394 53.1545 18.0799C53.1545 15.8204 53.8754 13.9761 55.2884 12.5244C55.9717 11.8046 56.8016 11.2359 57.7236 10.8557C58.6456 10.4755 59.6387 10.2924 60.6375 10.3186C61.5523 10.3093 62.4579 10.4983 63.2907 10.872C64.1235 11.2458 64.8631 11.7954 65.4574 12.4821L65.4431 10.6942ZM64.2818 15.1002C63.8862 14.7014 63.4141 14.3846 62.8929 14.1683C62.3718 13.952 61.8121 13.8405 61.2468 13.8405C60.6815 13.8405 60.1218 13.952 59.6007 14.1683C59.0795 14.3846 58.6074 14.7014 58.2118 15.1002C57.443 15.9269 57.0261 17.0142 57.0476 18.1364C57.0179 19.2731 57.4458 20.3751 58.2376 21.2008C58.6305 21.5996 59.1004 21.9165 59.6194 22.133C60.1385 22.3494 60.6962 22.4609 61.2597 22.4609C61.8231 22.4609 62.3809 22.3494 62.8999 22.133C63.419 21.9165 63.8889 21.5996 64.2818 21.2008C65.0648 20.3733 65.5004 19.283 65.5004 18.1505C65.5004 17.018 65.0648 15.9278 64.2818 15.1002Z" fill="white"/>
<path d="M71.5817 23.1214L73.6584 20.6868C74.7397 21.9747 76.3187 22.7683 77.8433 22.7683C79.0361 22.7683 79.9229 22.1639 79.9229 21.3166C79.9229 20.7969 79.5625 20.3592 78.8416 20.0315C78.5928 19.9214 78.0092 19.7011 77.0395 19.3452C76.38 19.1139 75.7327 18.8499 75.1001 18.5544C73.3552 17.7325 72.4942 16.4446 72.4942 14.6935C72.4842 14.0737 72.6192 13.46 72.8886 12.9001C73.158 12.3402 73.5546 11.8492 74.0475 11.4653C75.0715 10.618 76.4588 10.2085 78.1494 10.2085C80.2833 10.2085 82.0568 10.9174 83.4413 12.3408L81.5019 14.8319C80.4492 13.8462 79.285 13.3548 78.0378 13.3548C77.0138 13.3548 76.3215 13.9197 76.3215 14.6116C76.3215 15.2414 76.7649 15.6792 77.6517 15.9814C79.654 16.7186 80.8668 17.2128 81.2845 17.4303C82.975 18.3059 83.8331 19.5655 83.8331 21.2065C83.8453 21.8691 83.7015 22.5254 83.4132 23.1238C83.1248 23.7222 82.6996 24.2464 82.1712 24.655C81.09 25.5588 79.6197 25.9966 77.8204 25.9966C75.185 25.9985 73.1054 25.0401 71.5817 23.1214Z" fill="white"/>
<path d="M96.8455 10.6942H101.113L95.0434 26.3553C93.5731 30.1568 91.6337 31.9644 88.6416 31.9644C87.6205 31.9947 86.6117 31.7381 85.7325 31.2244L86.3961 27.9962C86.9979 28.2993 87.6603 28.4672 88.3355 28.4876C89.557 28.4876 90.5267 27.694 91.2733 26.135L91.5793 25.4515L84.9831 10.6942H89.4998L93.4072 20.4072L96.8455 10.6942Z" fill="white"/>
<path d="M117.066 12.5894C118.506 14.0952 119.282 16.1031 119.226 18.1731C119.283 20.2424 118.506 22.2494 117.066 23.754C116.377 24.4742 115.542 25.0437 114.615 25.4255C113.689 25.8074 112.692 25.9933 111.688 25.9711C110.783 25.9865 109.886 25.7942 109.069 25.4095C108.251 25.0248 107.535 24.4581 106.977 23.754V25.6153H103.181V4.8196H107.089V12.4256C107.649 11.7589 108.352 11.2239 109.148 10.8594C109.943 10.495 110.811 10.3102 111.688 10.3186C112.696 10.3015 113.696 10.495 114.623 10.8863C115.55 11.2777 116.383 11.858 117.066 12.5894ZM108.087 21.2093C108.479 21.5994 108.945 21.909 109.458 22.1203C109.972 22.3316 110.523 22.4404 111.079 22.4404C111.636 22.4404 112.186 22.3316 112.7 22.1203C113.213 21.909 113.68 21.5994 114.071 21.2093C114.845 20.3744 115.262 19.2764 115.235 18.1449C115.267 17.021 114.849 15.93 114.071 15.1087C113.691 14.7038 113.227 14.3844 112.711 14.1719C112.195 13.9595 111.638 13.859 111.079 13.8773C110.518 13.8578 109.959 13.9603 109.442 14.1775C108.925 14.3946 108.462 14.7212 108.087 15.1341C107.315 15.9486 106.897 17.0295 106.923 18.1449C106.896 19.2764 107.313 20.3744 108.087 21.2093Z" fill="white"/>
<path d="M123.531 12.5894C125.056 11.0586 126.997 10.2932 129.352 10.2932C131.707 10.2932 133.646 11.0586 135.17 12.5894C135.913 13.3133 136.498 14.1796 136.889 15.135C137.28 16.0904 137.469 17.1147 137.444 18.1449C137.472 19.1796 137.284 20.2089 136.893 21.1693C136.502 22.1297 135.915 23.0007 135.17 23.7286C133.646 25.2312 131.706 25.9881 129.352 25.9881C126.998 25.9881 125.061 25.2199 123.531 23.7286C122.786 23.0006 122.2 22.1294 121.809 21.1691C121.419 20.2087 121.232 19.1794 121.26 18.1449C121.234 17.1149 121.423 16.0907 121.813 15.1353C122.204 14.1798 122.789 13.3135 123.531 12.5894ZM129.352 22.4153C129.906 22.4274 130.456 22.3239 130.967 22.1117C131.477 21.8995 131.937 21.5834 132.315 21.1839C133.111 20.3684 133.549 19.2769 133.537 18.1449C133.545 17.5882 133.442 17.0353 133.232 16.5185C133.022 16.0016 132.711 15.5311 132.315 15.1341C131.937 14.7346 131.477 14.4185 130.967 14.2063C130.456 13.9941 129.906 13.8906 129.352 13.9027C128.793 13.8903 128.238 13.9935 127.723 14.2056C127.207 14.4176 126.742 14.7339 126.357 15.1341C125.966 15.5327 125.659 16.0042 125.455 16.5212C125.251 17.0381 125.153 17.5901 125.167 18.1449C125.143 19.2731 125.571 20.3651 126.357 21.1839C126.742 21.5841 127.207 21.9004 127.723 22.1124C128.238 22.3245 128.793 22.4277 129.352 22.4153Z" fill="white"/>
<path d="M140.093 19.3226V10.6942H144V19.3226C144 21.2093 145.145 22.4294 147.021 22.4294C148.898 22.4294 150.042 21.198 150.042 19.3226V10.6942H153.949V19.3226C153.949 23.5083 151.346 25.9711 147.021 25.9711C142.696 25.9711 140.093 23.5083 140.093 19.3226Z" fill="white"/>
<path d="M168.223 24.7397C166.896 25.5868 165.34 26.0162 163.761 25.9711C160.297 25.9711 158.494 23.9461 158.494 20.088V13.9309H156.029V10.6942H158.523V5.42118H162.405V10.6942H167.393V13.9309H162.405V19.8423C162.405 21.5934 163.123 22.469 164.539 22.469C165.427 22.4339 166.292 22.1721 167.047 21.7092L168.223 24.7397Z" fill="white"/>
<path d="M170.514 8.35004C170.074 7.89758 169.828 7.29433 169.828 6.66672C169.828 6.03911 170.074 5.43586 170.514 4.98341C170.977 4.54891 171.592 4.30664 172.23 4.30664C172.869 4.30664 173.484 4.54891 173.947 4.98341C174.387 5.43586 174.633 6.03911 174.633 6.66672C174.633 7.29433 174.387 7.89758 173.947 8.35004C173.483 8.78326 172.869 9.02467 172.23 9.02467C171.592 9.02467 170.978 8.78326 170.514 8.35004ZM174.17 25.6153H170.262V10.6942H174.17V25.6153Z" fill="white"/>
<path d="M189.122 10.6942H193.003V31.7356H189.096V23.8275C188.512 24.5109 187.781 25.0572 186.956 25.4266C186.131 25.796 185.233 25.9791 184.327 25.9627C183.325 25.9855 182.328 25.7956 181.406 25.4058C180.484 25.016 179.657 24.4354 178.981 23.7032C177.551 22.1978 176.873 20.3366 176.873 18.1477C176.873 15.9588 177.565 14.0976 178.981 12.5922C179.657 11.8606 180.484 11.2804 181.406 10.8906C182.329 10.5009 183.325 10.3107 184.327 10.3327C185.244 10.3222 186.151 10.5161 186.981 10.9C187.811 11.2839 188.543 11.8479 189.122 12.5498V10.6942ZM188.015 21.2008C188.791 20.3789 189.209 19.2884 189.179 18.1646C189.209 17.0402 188.791 15.9489 188.015 15.1256C187.218 14.3392 186.138 13.8974 185.011 13.8974C183.885 13.8974 182.804 14.3392 182.008 15.1256C181.23 15.9483 180.812 17.04 180.843 18.1646C180.812 19.2886 181.23 20.3796 182.008 21.2008C182.804 21.9873 183.885 22.4291 185.011 22.4291C186.138 22.4291 187.218 21.9873 188.015 21.2008Z" fill="white"/>
<path d="M3.20107e-06 27.3637V4.58248C3.20107e-06 3.42877 0.439945 2.32232 1.22305 1.50652C2.00615 0.69073 3.06826 0.232422 4.17574 0.232422L14.4721 0.232422C16.5808 0.232722 18.6218 1.00773 20.2361 2.42109C21.8504 3.83445 22.9345 5.79561 23.2976 7.95951C23.6608 10.1234 23.2798 12.3514 22.2216 14.2515C21.1634 16.1516 19.4959 17.6021 17.5123 18.3477L2.63987 23.3592C2.33205 23.4605 2.0401 23.608 1.77326 23.7972C1.22466 24.1998 0.777144 24.7341 0.468505 25.3548C0.159865 25.9756 -0.000827066 26.6646 3.20107e-06 27.3637Z" fill="white"/>
<path d="M3.79074e-06 3.93189V30.8551C3.79074e-06 32.2186 0.520988 33.5262 1.44835 34.4903C2.3757 35.4545 3.63347 35.9961 4.94495 35.9961H17.138C19.6351 35.9957 22.0521 35.0798 23.9638 33.4095C25.8754 31.7392 27.1592 29.4214 27.5893 26.8641C28.0194 24.3067 27.5681 21.6736 26.315 19.4281C25.0619 17.1825 23.0872 15.4683 20.7383 14.5871L3.12616 8.66441C2.76164 8.54478 2.41591 8.3704 2.09991 8.14679C1.45026 7.67097 0.920303 7.03959 0.554808 6.30597C0.189314 5.57236 -0.00097942 4.75807 3.79074e-06 3.93189Z" fill="url(#paint0_diamond_846_6164)"/>
<defs>
<radialGradient id="paint0_diamond_846_6164" cx="0" cy="0" r="1" gradientUnits="userSpaceOnUse" gradientTransform="translate(27.7479 18.9948) rotate(161.525) scale(29.2556 48.3769)">
<stop stop-color="white" stop-opacity="0.77"/>
<stop offset="1" stop-color="white"/>
</radialGradient>
</defs>
</svg>
