<svg width="39" height="39" viewBox="0 0 39 39" fill="none" xmlns="http://www.w3.org/2000/svg">
<g clip-path="url(#clip0_847_6181)">
<path fill-rule="evenodd" clip-rule="evenodd" d="M23.9265 0.0831358L2.34663 1.67707C0.60567 1.82761 0 2.96524 0 4.32868V27.9861C0 29.048 0.37713 29.9567 1.287 31.1712L6.35973 37.7673C7.19316 38.8292 7.95093 39.057 9.54213 38.9813L34.6024 37.4642C36.7212 37.3133 37.3285 36.3266 37.3285 34.659V8.0442C37.3285 7.1823 36.988 6.93388 35.9857 6.19834L28.9251 1.22038C27.2587 0.00864573 26.5773 -0.144624 23.9265 0.0827458V0.0831358ZM10.1088 7.60858C8.06247 7.74625 7.59837 7.77745 6.43617 6.83248L3.48153 4.48234C3.18123 4.17814 3.33216 3.79867 4.08876 3.72301L24.834 2.20708C26.5762 2.05498 27.4833 2.66221 28.1646 3.19261L31.7226 5.77051C31.8747 5.84734 32.253 6.30091 31.7979 6.30091L10.374 7.59063L10.1088 7.60858ZM7.72317 34.4316V11.8377C7.72317 10.851 8.0262 10.3959 8.93334 10.3195L33.54 8.87881C34.3746 8.80354 34.7517 9.33393 34.7517 10.3191V32.7624C34.7517 33.7491 34.5996 34.5837 33.2374 34.659L9.69033 36.024C8.32806 36.0992 7.72356 35.6457 7.72356 34.4316H7.72317ZM30.9672 13.0491C31.1181 13.7316 30.9672 14.4141 30.2847 14.4921L29.1498 14.7171V31.3986C28.1642 31.929 27.2571 32.232 26.4989 32.232C25.2872 32.232 24.9846 31.8525 24.077 30.7161L16.6553 19.0395V30.3366L19.0031 30.8682C19.0031 30.8682 19.0031 32.2332 17.1089 32.2332L11.8868 32.5362C11.7347 32.232 11.8868 31.4742 12.416 31.3233L13.7799 30.945V16.008L11.8872 15.8547C11.7351 15.1722 12.1134 14.1867 13.1742 14.1103L18.7773 13.7331L26.4993 25.5607V15.097L24.531 14.8708C24.3789 14.035 24.9846 13.4278 25.7412 13.3537L30.9672 13.0491Z" fill="white"/>
</g>
<defs>
<clipPath id="clip0_847_6181">
<rect width="39" height="39" fill="white" transform="translate(0 -0.00585938)"/>
</clipPath>
</defs>
</svg>
