<svg width="196" height="26" viewBox="0 0 196 26" fill="none" xmlns="http://www.w3.org/2000/svg">
<path d="M118.247 1.98642C115.083 1.98642 113.545 3.85079 113.545 6.59698V8.20972H111.151V10.5599H113.555V22.9848H116.036V10.5599H119.848V8.20972H116.036L116.013 6.67094C116.013 5.34143 116.799 4.42435 118.364 4.42435C118.899 4.42221 119.433 4.47268 119.959 4.57269V2.22165C119.402 2.06281 118.826 1.98321 118.247 1.98642ZM44.022 2.53459C43.6053 2.54978 43.2071 2.7216 42.9102 3.01967C42.5695 3.35901 42.3942 3.83086 42.4276 4.31029C42.4276 4.94431 42.765 5.53068 43.3142 5.847C43.8627 6.16467 44.5394 6.16467 45.0878 5.847C45.6363 5.53068 45.9751 4.94431 45.974 4.31029C46.0082 3.83086 45.8327 3.35901 45.4923 3.01967C45.1527 2.67901 44.6807 2.50344 44.2012 2.53795C44.1412 2.53367 44.0815 2.53245 44.022 2.53459ZM86.4056 3.27663C81.8817 3.27663 79.5782 5.5129 79.5782 8.53479C79.5782 11.7257 81.5361 13.2327 85.9022 14.2972C89.5955 15.1839 90.6598 16.097 90.6598 17.8131C90.6598 19.5293 89.5545 20.6814 86.63 20.6814C84.0613 20.6814 81.284 20.0024 79.4812 19.0561V21.7731C80.9886 22.5419 82.7315 23.2802 86.4858 23.2802C91.3041 23.2802 93.3131 21.0032 93.3329 17.6355C93.3329 14.1364 91.0265 12.82 86.9195 11.7849C83.4944 10.9295 82.2513 10.1298 82.2513 8.53479C82.2513 6.76219 83.7594 5.87541 86.3007 5.87541C88.4108 5.82407 90.4968 6.33363 92.3456 7.35321V4.69302C91.0159 3.9483 89.2133 3.27663 86.4056 3.27663ZM36.6961 3.57494L36.7027 17.252C36.7027 19.1898 35.9263 20.5331 33.6807 20.5331C32.7405 20.5404 31.8088 20.3692 30.9336 20.0296V22.6146C31.9601 22.9646 33.0393 23.1348 34.1236 23.1193C37.7909 23.1193 39.3558 20.6509 39.3558 17.0744V3.57494H36.6961ZM123.62 5.07615V8.22226H121.225V10.5737H123.629V18.3709C123.629 21.1211 125.168 22.9815 128.331 22.9815C128.911 22.9847 129.487 22.9051 130.044 22.7462V20.2949C129.52 20.4171 128.986 20.4872 128.449 20.503C126.883 20.503 126.114 19.617 126.101 18.3166V10.5599H130.03V8.20972H126.101V5.07615H123.62ZM189.618 7.90388C185.126 7.90388 182.644 11.0935 182.644 15.5569C182.644 20.0902 185.065 23.2802 190.593 23.2802C192.1 23.2802 193.965 23.0516 195.176 22.3978V20.0463C193.737 20.5736 192.216 20.8445 190.684 20.8456C187.197 20.8456 185.572 19.2202 185.217 16.708H195.999V15.5569C195.999 11.0665 194.17 7.90388 189.618 7.90388ZM64.2048 7.91436C60.0676 7.91436 57.9994 11.4301 57.9994 15.5967C57.9994 19.9419 59.9808 23.2802 63.9094 23.2802C66.1834 23.2802 67.9561 22.2767 68.9035 20.3255L68.9065 22.9848H71.4489V8.20976H68.9065V10.8085C68.0166 8.88755 66.3608 7.91436 64.2048 7.91436ZM102.592 7.91436C98.1587 7.91436 95.5594 11.1347 95.5594 15.5666C95.5594 19.9995 98.1889 23.2907 102.592 23.2907C106.994 23.2907 109.566 19.9995 109.566 15.5666C109.566 11.1347 107.024 7.91436 102.592 7.91436ZM162.845 7.91436C158.708 7.91436 156.64 11.4301 156.64 15.5967C156.64 19.9419 158.621 23.2802 162.55 23.2802C164.823 23.2802 166.596 22.2767 167.543 20.3255L167.546 22.9848H170.089V8.20976H167.546V10.8085C166.656 8.88755 165.001 7.91436 162.845 7.91436ZM56.4715 7.98414C53.9298 7.98072 52.5666 9.17407 51.7636 10.8085V8.20976H49.2818V22.9948H51.7636V14.2639C51.7636 11.1345 53.745 10.1473 56.9955 10.4827V8.00085C56.8153 7.98973 56.641 7.98436 56.4715 7.98414ZM181.116 7.98414C178.574 7.98072 177.211 9.17407 176.408 10.8085V8.20976H173.926V22.9948H176.408V14.2639C176.408 11.1345 178.39 10.1473 181.64 10.4827V8.00085C181.46 7.98973 181.285 7.98436 181.116 7.98414ZM130.755 8.20976L136.192 22.9848H139.442L142.018 15.8361L143.362 11.2849L144.705 15.8361L147.247 22.9848H150.497L155.934 8.20976H153.127L148.868 20.7378L144.553 8.20976H142.129L137.817 20.7378L133.563 8.20976H130.755ZM42.9018 8.21319V22.9878H45.443V8.21319H42.9018ZM189.494 10.2341C192.033 10.2341 193.275 11.8019 193.423 14.5489H185.187V14.5326C185.452 11.9704 186.812 10.2208 189.494 10.2341ZM64.8733 10.2647C67.043 10.2647 68.9035 11.7123 68.9035 14.993V16.188C68.9035 19.4673 66.8664 20.9153 64.5917 20.9167C61.9583 20.9167 60.5417 19.1428 60.5281 15.583C60.5281 12.1549 62.0052 10.2647 64.8733 10.2647ZM163.514 10.2647C165.683 10.2647 167.543 11.7123 167.543 14.993V16.188C167.543 19.4669 165.507 20.915 163.232 20.9167C160.598 20.9167 159.172 19.143 159.172 15.5967C159.172 12.1687 160.659 10.2917 163.514 10.2647ZM102.592 10.2914C105.724 10.2914 107.084 12.76 107.084 15.5667C107.084 18.3744 105.751 20.9167 102.592 20.9167C99.432 20.9167 98.0412 18.3744 98.0412 15.5667H98.0539C98.0539 12.76 99.458 10.2914 102.592 10.2914Z" fill="white"/>
<path d="M24.3114 12.5608L13.3635 1.61298L12.3025 0.552734L0.294407 12.5608C-0.0981355 12.9545 -0.0981355 13.5917 0.294407 13.9845L7.82356 21.5134L12.3025 25.9934L24.3114 13.9845C24.7042 13.5917 24.7042 12.9545 24.3114 12.5608ZM12.3025 17.0334L8.54207 13.2732L12.3025 9.51168L16.0637 13.2732L12.3025 17.0334Z" fill="white"/>
<path d="M12.3039 9.51156C9.84195 7.04856 9.82937 3.0595 12.2777 0.582031L4.04688 8.80965L8.52688 13.2897L12.3039 9.51156Z" fill="url(#paint0_linear_847_6176)"/>
<path d="M16.0725 13.2617L12.3008 17.0326C13.4894 18.2201 14.1579 19.832 14.1579 21.5126C14.1579 23.1932 13.4894 24.804 12.3008 25.9926L20.5514 17.7417L16.0725 13.2617Z" fill="url(#paint1_linear_847_6176)"/>
<defs>
<linearGradient id="paint0_linear_847_6176" x1="10.6875" y1="6.65249" x2="6.38064" y2="10.9582" gradientUnits="userSpaceOnUse">
<stop stop-color="#DCDCDC"/>
<stop offset="1" stop-color="white"/>
</linearGradient>
<linearGradient id="paint1_linear_847_6176" x1="13.9637" y1="19.8508" x2="18.2619" y2="15.5526" gradientUnits="userSpaceOnUse">
<stop stop-color="#DCDCDC"/>
<stop offset="1" stop-color="white"/>
</linearGradient>
</defs>
</svg>
