<svg width="154" height="42" viewBox="0 0 154 42" fill="none" xmlns="http://www.w3.org/2000/svg">
<g clip-path="url(#clip0_846_6113)">
<path d="M19.0473 0L0.734375 10.508V31.4966L5.96203 34.5008L5.92512 13.5077L19.0104 5.99935L32.0957 13.5077V34.4916L37.3233 31.4966V10.4897L19.0473 0Z" fill="white"/>
<path d="M21.6396 34.4963L19.0281 36.0054L16.4027 34.5101V13.5078L11.1797 16.5075L11.1889 37.5006L19.0235 42.0001L26.8673 37.5006V16.5075L21.6396 13.5078V34.4963Z" fill="white"/>
<path d="M49.2969 10.6367L56.4855 28.6898H56.5455L63.5587 10.6367H66.2948V31.3225H64.4031V13.297H64.3431C64.2447 13.6242 64.1385 13.9513 64.0247 14.2785C63.9263 14.5476 63.814 14.8457 63.6879 15.1729C63.5633 15.5032 63.448 15.8105 63.3557 16.0994L57.3298 31.3225H55.6134L49.5276 16.104C49.4107 15.8349 49.2938 15.5414 49.1769 15.2234C49.06 14.9054 48.9524 14.6011 48.8539 14.3106C48.737 13.962 48.6202 13.6242 48.5033 13.297H48.4433V31.3225H46.6484V10.6367H49.2969Z" fill="white"/>
<path d="M71.7949 31.4095C71.2298 31.2545 70.7013 30.9894 70.24 30.6298C69.8001 30.2796 69.4466 29.8341 69.2065 29.3272C68.9542 28.8074 68.8281 28.2004 68.8281 27.5063C68.8281 26.6195 68.9927 25.8964 69.3218 25.3368C69.6467 24.7839 70.107 24.3216 70.6599 23.9929C71.2228 23.6566 71.878 23.4012 72.6254 23.2269C73.4167 23.0465 74.2178 22.9117 75.0247 22.8233C75.763 22.7469 76.3889 22.6643 76.9026 22.5756C77.4163 22.487 77.8331 22.3754 78.153 22.2408C78.4729 22.1063 78.7051 21.9274 78.8497 21.7042C78.9943 21.481 79.0666 21.1767 79.0666 20.7914V20.5025C79.0666 19.4812 78.7559 18.7244 78.1345 18.2321C77.5132 17.7398 76.6212 17.4936 75.4584 17.4936C72.7792 17.4936 71.372 18.6036 71.2366 20.8235H69.4602C69.5587 19.3772 70.097 18.2198 71.0751 17.3514C72.0533 16.483 73.5129 16.0488 75.4538 16.0488C77.1026 16.0488 78.4022 16.4112 79.3526 17.1359C80.3031 17.8606 80.7784 19.0424 80.7784 20.6813V28.8089C80.7784 29.2523 80.8614 29.5749 81.0275 29.7767C81.1936 29.9785 81.4412 30.0901 81.7704 30.1115C81.8725 30.1112 81.9744 30.102 82.0749 30.084C82.181 30.0656 82.301 30.0335 82.4394 29.9968H82.5271V31.2995C82.3668 31.3654 82.2018 31.419 82.0334 31.46C81.7942 31.5132 81.5494 31.5379 81.3044 31.5334C80.6461 31.5334 80.1216 31.3637 79.731 31.0243C79.3403 30.6848 79.1266 30.1497 79.0896 29.4189V29.1024H79.0112C78.7751 29.419 78.5176 29.7194 78.2407 30.0014C77.9154 30.3284 77.5476 30.6106 77.1472 30.8408C76.6809 31.1068 76.1813 31.3103 75.6614 31.4462C75.0985 31.6022 74.4587 31.6786 73.742 31.6756C73.0823 31.6807 72.4252 31.5926 71.7903 31.4141M76.229 29.8363C76.8595 29.5764 77.3886 29.2431 77.8162 28.8364C78.2177 28.461 78.5384 28.0085 78.7589 27.5063C78.9793 27.0041 79.095 26.4627 79.0989 25.9147V23.2224C78.6129 23.4914 78.0253 23.6994 77.3363 23.8461C76.6473 23.9929 75.9337 24.1137 75.1954 24.2085C74.5556 24.3063 73.9635 24.4072 73.419 24.5112C72.8746 24.6152 72.404 24.7833 72.0072 25.0157C71.615 25.242 71.2889 25.5661 71.0613 25.956C70.8275 26.3505 70.7106 26.8672 70.7106 27.5063C70.7106 28.0261 70.8029 28.4603 70.9875 28.8089C71.16 29.1422 71.4099 29.4299 71.7165 29.6483C72.0358 29.8683 72.3969 30.0212 72.7777 30.0978C73.1995 30.1855 73.6295 30.2285 74.0604 30.2262C74.8755 30.2262 75.5984 30.0962 76.229 29.8363Z" fill="white"/>
<path d="M85.6163 35.4498C84.6073 34.7067 84.0352 33.7756 83.8999 32.6565H85.644C85.8008 33.5249 86.2715 34.1472 87.0558 34.5233C87.8402 34.8994 88.7769 35.0874 89.8658 35.0874C91.4776 35.0874 92.6664 34.7067 93.4324 33.9453C94.1983 33.184 94.5813 32.1367 94.5813 30.8035V28.4322H94.4936C93.9307 29.2792 93.2801 29.9244 92.5419 30.3678C91.8036 30.8111 90.8624 31.0328 89.7181 31.0328C88.7276 31.0328 87.8356 30.8494 87.042 30.4824C86.2581 30.1255 85.5621 29.6027 85.0026 28.9505C84.4397 28.2961 84.0075 27.5103 83.7061 26.5929C83.4046 25.6756 83.2539 24.6681 83.2539 23.5703C83.2539 22.3564 83.4277 21.2816 83.7753 20.3459C84.1229 19.4102 84.5889 18.6244 85.1733 17.9884C85.7424 17.3623 86.4435 16.869 87.2266 16.5436C88.014 16.2158 88.8598 16.0489 89.7135 16.0528C90.8762 16.0528 91.8359 16.2898 92.5926 16.7637C93.3493 17.2377 93.9799 17.8783 94.4844 18.6855H94.572V16.3647H96.3576V30.7439C96.3576 32.4012 95.8916 33.742 94.9596 34.7664C93.8153 35.9619 92.1374 36.5597 89.9257 36.5597C88.0617 36.5597 86.6252 36.1882 85.6163 35.4452M93.5062 27.8772C94.3029 26.7764 94.7012 25.3301 94.7012 23.5382C94.7012 22.6515 94.6043 21.8412 94.4105 21.1073C94.2168 20.3734 93.9153 19.742 93.5062 19.213C93.104 18.6871 92.5801 18.2654 91.979 17.9838C91.3668 17.6933 90.6532 17.5481 89.8381 17.5481C88.3431 17.5481 87.1835 18.0969 86.3591 19.1947C85.5348 20.2924 85.1226 21.7586 85.1226 23.5933C85.1161 24.3883 85.2138 25.1808 85.4133 25.9508C85.607 26.6724 85.8977 27.2993 86.2853 27.8313C86.6644 28.3537 87.1625 28.7796 87.7387 29.0743C88.3201 29.374 89.0091 29.5238 89.8058 29.5238C91.473 29.5238 92.7049 28.9734 93.5016 27.8726" fill="white"/>
<path d="M102.616 31.107C101.768 30.7304 101.017 30.1674 100.419 29.4604C99.8289 28.7571 99.3782 27.9269 99.0676 26.9698C98.7569 26.0127 98.6016 24.9762 98.6016 23.8601C98.6016 22.7409 98.7661 21.7043 99.0953 20.7503C99.4244 19.7963 99.8842 18.9676 100.475 18.2644C101.062 17.5632 101.798 16.9994 102.63 16.6132C103.472 16.2187 104.418 16.0215 105.467 16.0215C106.67 16.0215 107.683 16.2478 108.508 16.7003C109.315 17.1375 110.003 17.7622 110.515 18.5212C111.029 19.2826 111.393 20.1556 111.608 21.1402C111.823 22.1382 111.929 23.1561 111.927 24.1766H100.461C100.473 24.9753 100.595 25.7687 100.826 26.5341C101.028 27.2178 101.353 27.8595 101.785 28.4284C102.205 28.9722 102.749 29.4092 103.372 29.7035C104.012 30.0123 104.76 30.1667 105.615 30.1667C106.876 30.1667 107.851 29.8625 108.54 29.254C109.229 28.6455 109.718 27.8306 110.007 26.8093H111.756C111.427 28.2954 110.747 29.4818 109.717 30.3685C108.686 31.2553 107.319 31.6987 105.615 31.6987C104.489 31.6987 103.489 31.5014 102.616 31.107ZM109.717 20.6907C109.523 20.0455 109.241 19.4859 108.872 19.012C108.501 18.5366 108.022 18.1548 107.474 17.8974C106.911 17.6283 106.242 17.4938 105.467 17.4938C104.692 17.4938 104.017 17.6283 103.442 17.8974C102.866 18.1557 102.354 18.5361 101.942 19.012C101.523 19.5064 101.193 20.0699 100.969 20.6769C100.718 21.3473 100.557 22.0473 100.489 22.7593H110.035C110.022 22.0588 109.915 21.3631 109.717 20.6907Z" fill="white"/>
<path d="M115.972 16.366V18.6501H116.032C116.548 17.8876 117.229 17.2497 118.025 16.7834C118.85 16.2911 119.863 16.0449 121.066 16.0449C122.462 16.0449 123.613 16.4455 124.517 17.2466C125.422 18.0478 125.872 19.2005 125.869 20.705V31.3277H124.065V20.8793C124.065 19.7418 123.759 18.907 123.147 18.3749C122.535 17.8429 121.695 17.5784 120.628 17.5815C120.012 17.578 119.4 17.6869 118.823 17.9025C118.278 18.1033 117.775 18.4018 117.338 18.7832C116.912 19.1566 116.569 19.6144 116.332 20.127C116.086 20.6623 115.961 21.2448 115.967 21.8333V31.3277H114.168V16.366H115.972Z" fill="white"/>
<path d="M130.527 30.8186C130.004 30.4027 129.743 29.7132 129.743 28.75V17.8429H127.473V16.366H129.743V11.7656H131.547V16.366H134.343V17.8429H131.547V28.461C131.547 29.0023 131.668 29.3738 131.911 29.5756C132.154 29.7774 132.517 29.8783 133 29.8783C133.221 29.8772 133.44 29.8526 133.655 29.8049C133.84 29.7684 134.021 29.7146 134.195 29.6444H134.283V31.1763C133.748 31.3552 133.186 31.4436 132.622 31.4378C131.748 31.4378 131.05 31.2299 130.527 30.814" fill="white"/>
<path d="M139.681 31.1077C138.836 30.7249 138.086 30.1611 137.485 29.4565C136.882 28.7532 136.421 27.9245 136.101 26.9705C135.781 26.0165 135.621 24.9799 135.621 23.8608C135.621 22.7416 135.781 21.705 136.101 20.751C136.421 19.797 136.882 18.9668 137.485 18.2605C138.086 17.5561 138.836 16.9923 139.681 16.6093C140.546 16.2148 141.521 16.0176 142.607 16.0176C143.693 16.0176 144.663 16.2148 145.518 16.6093C146.358 16.995 147.103 17.5586 147.701 18.2605C148.303 18.9637 148.759 19.7939 149.066 20.751C149.374 21.7081 149.529 22.7447 149.532 23.8608C149.532 24.9799 149.377 26.0165 149.066 26.9705C148.756 27.9245 148.3 28.7532 147.701 29.4565C147.103 30.1586 146.358 30.7222 145.518 31.1077C144.666 31.5021 143.696 31.6994 142.607 31.6994C141.518 31.6994 140.543 31.5021 139.681 31.1077ZM144.821 29.7042C145.455 29.3826 146.003 28.9176 146.422 28.3465C146.85 27.7686 147.17 27.0928 147.382 26.3192C147.809 24.7078 147.809 23.0138 147.382 21.4023C147.17 20.6287 146.85 19.9529 146.422 19.375C146.004 18.8036 145.455 18.3384 144.821 18.0174C144.182 17.6871 143.445 17.5235 142.611 17.5266C141.778 17.5296 141.035 17.6932 140.383 18.0174C139.753 18.3438 139.205 18.808 138.782 19.375C138.345 19.9529 138.02 20.6287 137.808 21.4023C137.382 23.0139 137.382 24.7076 137.808 26.3192C138.02 27.0898 138.345 27.7655 138.782 28.3465C139.206 28.9131 139.753 29.3771 140.383 29.7042C141.013 30.0313 141.756 30.1949 142.611 30.1949C143.466 30.1949 144.203 30.0313 144.821 29.7042Z" fill="white"/>
<path d="M151.837 18.8508C150.72 18.8508 149.945 18.0803 149.945 16.929C149.945 15.7778 150.739 14.998 151.837 14.998C152.935 14.998 153.733 15.7778 153.733 16.929C153.733 18.0803 152.94 18.8508 151.837 18.8508ZM151.837 15.2182C150.937 15.2182 150.218 15.8328 150.218 16.9244C150.218 18.0161 150.933 18.6215 151.837 18.6215C152.741 18.6215 153.466 18.0069 153.466 16.9244C153.466 15.842 152.741 15.2182 151.837 15.2182ZM152.395 17.9564L151.754 17.0437H151.546V17.9243H151.177V15.787H151.828C152.275 15.787 152.575 16.0117 152.575 16.4107C152.575 16.718 152.409 16.9153 152.142 16.9978L152.76 17.8693L152.395 17.9564ZM151.832 16.1264H151.546V16.7547H151.814C152.054 16.7547 152.206 16.6538 152.206 16.4383C152.206 16.2227 152.072 16.1218 151.832 16.1218" fill="white"/>
</g>
<defs>
<clipPath id="clip0_846_6113">
<rect width="153" height="42" fill="white" transform="translate(0.734375)"/>
</clipPath>
</defs>
</svg>
