<svg width="28" height="40" viewBox="0 0 28 40" fill="none" xmlns="http://www.w3.org/2000/svg">
<path fill-rule="evenodd" clip-rule="evenodd" d="M0 7.48378C0 3.3506 3.3415 0 7.46346 0H20.2699C24.3918 0 27.7333 3.3506 27.7333 7.48378C27.7333 10.101 26.3935 12.4044 24.3642 13.742C26.3935 15.0796 27.7333 17.383 27.7333 20.0002C27.7333 24.1334 24.3918 27.484 20.2699 27.484H20.1078C18.1754 27.484 16.4145 26.7476 15.089 25.5394V32.4349C15.089 36.6232 11.6602 40 7.50373 40C3.39202 40 0 36.6596 0 32.5162C0 29.8991 1.33967 27.5958 3.36888 26.2582C1.33967 24.9205 0 22.6172 0 20.0002C0 17.383 1.33979 15.0796 3.36914 13.742C1.33978 12.4044 0 10.101 0 7.48378ZM12.6443 14.9678V25.0324H7.46346C7.45284 25.0324 7.44221 25.0324 7.4316 25.0325C4.67449 25.0153 2.44473 22.7688 2.44473 20.0002C2.44473 17.2208 4.69168 14.9678 7.46346 14.9678H12.6443ZM7.43161 27.4839C4.67449 27.5011 2.44473 29.7475 2.44473 32.5162C2.44473 35.2853 4.7217 37.5486 7.50373 37.5486C10.3305 37.5486 12.6443 35.2489 12.6443 32.4349V27.484H7.46346C7.45284 27.484 7.44222 27.4839 7.43161 27.4839ZM15.089 20.0002C15.089 22.7795 17.336 25.0326 20.1078 25.0326H20.2699C23.0416 25.0326 25.2886 22.7795 25.2886 20.0002C25.2886 17.2208 23.0417 14.9678 20.2699 14.9678H20.1078C17.336 14.9678 15.089 17.2208 15.089 20.0002ZM15.089 12.5162H20.2699C23.0416 12.5162 25.2886 10.2631 25.2886 7.48378C25.2886 4.70447 23.0417 2.45139 20.2699 2.45139H15.089V12.5162ZM12.6443 2.45139H7.46346C4.69168 2.45139 2.44473 4.70447 2.44473 7.48378C2.44473 10.2631 4.69169 12.5162 7.46346 12.5162H12.6443V2.45139Z" fill="white"/>
</svg>
