<svg width="24" height="24" viewBox="0 0 24 24" fill="none" xmlns="http://www.w3.org/2000/svg">
<path d="M19.7459 16.7327C19.7923 16.7327 19.8377 16.7337 19.884 16.7379C21.0653 16.8145 22 17.8437 22 19.1027C22 20.4125 20.9893 21.4737 19.742 21.4737C18.9689 21.4737 18.2846 21.0648 17.8794 20.4404C17.8773 20.4383 17.8754 20.4363 17.8754 20.4342C17.8694 20.4259 17.8646 20.4177 17.8596 20.4094C17.8487 20.3938 17.8389 20.3783 17.829 20.3617L17.8271 20.3586L17.7462 20.2116L17.7442 20.2085C17.7324 20.1857 17.7215 20.163 17.7117 20.1392C17.7087 20.1339 17.7058 20.1288 17.7038 20.1236C17.5628 19.814 17.4839 19.4682 17.4839 19.1027C17.4839 18.0011 18.2008 17.0754 19.1701 16.8104C19.176 16.8083 19.181 16.8073 19.1868 16.8063C19.2214 16.797 19.2559 16.7886 19.2914 16.7804C19.3259 16.7731 19.3604 16.7669 19.3959 16.7607C19.4294 16.7555 19.462 16.7514 19.4946 16.7483C19.5202 16.7442 19.5467 16.7421 19.5724 16.74C19.5813 16.739 19.5911 16.739 19.6 16.7379C19.6138 16.7369 19.6267 16.7358 19.6405 16.7358C19.674 16.7337 19.7085 16.7327 19.742 16.7327L19.7459 16.7327ZM10.086 3.78508C10.8501 2.22381 13.0025 2.08242 13.943 3.54352C13.945 3.54551 13.947 3.54764 13.947 3.54964C13.9529 3.55782 13.9578 3.56607 13.9627 3.57427C13.9736 3.58961 13.9834 3.605 13.9932 3.62145L13.9952 3.62447L14.0758 3.77005L14.0778 3.77307C14.0824 3.78184 14.0861 3.79098 14.0904 3.79975L14.091 3.80058L14.0914 3.80158L14.1581 3.92085C15.1482 5.71064 17.1375 9.29981 18.129 11.09C18.1239 11.0805 18.1166 11.0698 18.1093 11.0599L18.0804 11.0151L18.0791 11.0132L18.0443 10.95L18.0421 10.9469C18.0322 10.9303 18.0223 10.9151 18.0115 10.8998C18.0068 10.8918 18.0017 10.8832 17.9961 10.8752C17.9961 10.8729 17.9939 10.8711 17.9918 10.8688C17.0879 9.45939 15.0198 9.52927 14.2003 10.9882C14.1934 10.9984 14.1874 11.007 14.1817 11.016C14.1621 11.0457 14.1422 11.0772 14.1241 11.1083L14.0509 11.2393L14.0458 11.2501L10.4945 17.6657C10.4739 17.702 10.4464 17.7531 10.4265 17.79L10.4222 17.7967C10.4183 17.8061 10.4131 17.8159 10.4088 17.8254C10.4067 17.8276 10.4058 17.8299 10.405 17.8322C10.3796 17.8837 10.3554 17.9366 10.3334 17.9904C9.58585 19.4664 10.6 21.3198 12.1967 21.4027C12.2428 21.4068 12.288 21.4081 12.3345 21.4081C12.3297 21.408 12.3158 21.408 12.2936 21.4079L10.2881 21.408C10.228 21.408 10.1672 21.408 10.1057 21.408L8.33037 21.4085C8.2625 21.4086 8.19462 21.4086 8.12683 21.4086L5.5369 21.4086C5.48645 21.4086 5.43714 21.4086 5.38909 21.4085L4.77107 21.408C4.73737 21.4079 4.70529 21.4079 4.67492 21.4078L4.51383 21.4075C4.4906 21.4074 4.46923 21.4074 4.44982 21.4073L4.35716 21.4068C4.33446 21.4067 4.32013 21.4065 4.3148 21.4063C4.24795 21.4094 4.18194 21.4085 4.11522 21.4029C2.68421 21.3394 1.65038 19.7678 2.1108 18.347C2.15191 18.1763 2.21161 18.0093 2.29211 17.8501L2.42944 17.6026L2.43758 17.5873L2.4385 17.585C2.44578 17.5719 4.09539 14.5947 5.85199 11.4245L6.09763 10.9811C8.02488 7.50285 9.99465 3.94789 10.002 3.93482C10.0042 3.93077 10.0072 3.92539 10.0093 3.92089L10.0761 3.80162C10.0761 3.79977 10.0782 3.79757 10.0782 3.79757C10.0808 3.79337 10.0835 3.78928 10.086 3.78508Z" fill="#111111"/>
</svg>
